<?xml version="1.0" standalone="no"?>
<!DOCTYPE svg PUBLIC "-//W3C//DTD SVG 1.1//EN" "http://www.w3.org/Graphics/SVG/1.1/DTD/svg11.dtd" >
<svg xmlns="http://www.w3.org/2000/svg">
<metadata>Generated by IcoMoon</metadata>
<defs>
<font id="Employee-font-icon" horiz-adv-x="1024">
<font-face units-per-em="1024" ascent="960" descent="-64" />
<missing-glyph horiz-adv-x="1024" />
<glyph unicode="&#x20;" horiz-adv-x="512" d="" />
<glyph unicode="&#xe900;" glyph-name="camera" d="M512 576c-69.376 0-128-58.624-128-128s58.624-128 128-128c69.376 0 128 58.624 128 128s-58.624 128-128 128zM853.339 746.67h-110.336l-115.5 115.498c-7.976 8.022-18.816 12.502-30.164 12.502h-170.668c-11.348 0-22.184-4.48-30.164-12.502l-115.499-115.498h-110.336c-47.061 0-85.333-38.272-85.333-85.333v-469.333c0-47.064 38.272-85.336 85.333-85.336h682.667c47.060 0 85.332 38.272 85.332 85.336v469.333c0 47.061-38.272 85.333-85.332 85.333zM512.007 234.668c-115.628 0-213.335 97.708-213.335 213.336 0 115.624 97.707 213.333 213.335 213.333 115.624 0 213.332-97.709 213.332-213.333 0-115.628-97.708-213.336-213.332-213.336z" />
<glyph unicode="&#xe901;" glyph-name="reward" d="M511.978 868.571c161.584 0 292.571-130.989 292.571-292.571 0-95.331-45.597-180.016-116.169-233.428-0.567-0.395-1.123-0.812-1.657-1.247-48.761-36.367-109.239-57.896-174.746-57.896-65.452 0-125.886 21.493-174.624 57.805-0.588 0.483-1.196 0.94-1.823 1.368-70.548 53.42-116.125 138.086-116.125 233.399 0 161.583 130.989 292.571 292.572 292.571zM731.429 306.64c78.102 63.707 127.978 160.709 127.978 269.36 0 191.88-155.549 347.429-347.429 347.429s-347.429-155.549-347.429-347.429c0-108.672 49.893-205.689 128.022-269.396v-306.604c0-9.505 4.923-18.333 13.009-23.333s18.185-5.453 26.687-1.2l179.707 89.867 179.76-89.867c8.503-4.253 18.6-3.796 26.686 1.2 8.086 4.999 13.008 13.828 13.008 23.333v306.64zM676.571 269.956v-225.58l-152.335 76.156c-7.72 3.862-16.812 3.862-24.532 0l-152.276-76.149v225.551c48.98-26.39 105.015-41.362 164.549-41.362 59.553 0 115.606 14.983 164.593 41.384zM511.978 740.571c-90.891 0-164.572-73.681-164.572-164.571s73.681-164.571 164.572-164.571c90.891 0 164.571 73.68 164.571 164.571s-73.68 164.571-164.571 164.571zM292.549 576c0 121.187 98.242 219.429 219.429 219.429s219.429-98.241 219.429-219.429c0-121.187-98.242-219.429-219.429-219.429s-219.429 98.242-219.429 219.429z" />
<glyph unicode="&#xe902;" glyph-name="zoom" d="M84.643 639.744v-287.572c0.256-65.024 58.070-117.336 128.598-117.12h456.236c12.928 0 23.424 9.6 23.424 21.248v287.572c-0.344 64.981-58.156 117.333-128.6 117.077h-456.319c-12.885 0-23.339-9.557-23.339-21.205zM721.913 527.532l188.416 126.42c16.34 12.458 29.012 9.344 29.012-13.184v-385.536c0-25.644-15.488-22.528-29.012-13.184l-188.416 126.164v159.32z" />
<glyph unicode="&#xe903;" glyph-name="dots" d="M512 533.333c-46.933 0-85.333-38.4-85.333-85.333s38.4-85.333 85.333-85.333c46.933 0 85.333 38.4 85.333 85.333s-38.4 85.333-85.333 85.333zM768 533.333c-46.933 0-85.333-38.4-85.333-85.333s38.4-85.333 85.333-85.333c46.933 0 85.333 38.4 85.333 85.333s-38.4 85.333-85.333 85.333zM256 533.333c-46.933 0-85.333-38.4-85.333-85.333s38.4-85.333 85.333-85.333c46.933 0 85.333 38.4 85.333 85.333s-38.4 85.333-85.333 85.333z" />
<glyph unicode="&#xe904;" glyph-name="star-thin" d="M278.005 348.887l-63.573-275.289c-3.925-17.022 2.901-34.727 17.323-44.67 7.296-5.035 15.744-7.595 24.235-7.595 8.235 0 16.512 2.389 23.68 7.168l232.321 154.88 232.318-154.88c14.848-9.899 34.348-9.516 48.855 1.024 14.421 10.537 20.777 29.013 15.872 46.165l-78.039 273.067 193.536 174.165c12.674 11.435 17.323 29.269 11.861 45.397-5.502 16.128-20.053 27.477-37.035 28.843l-243.241 19.371-105.26 233.003c-6.868 15.317-22.101 25.131-38.868 25.131-16.77 0-32-9.813-38.871-25.131l-105.257-233.003-243.243-19.326c-16.725-1.324-31.104-12.288-36.736-28.034-5.717-15.746-1.621-33.365 10.325-45.056l179.797-175.23zM399.732 533.46c15.49 1.239 29.143 10.796 35.499 25.003l76.759 169.858 76.756-169.858c6.359-14.206 20.012-23.764 35.499-25.003l169.472-13.438-139.561-125.611c-12.117-10.923-16.94-27.733-12.503-43.435l53.463-187.092-159.403 106.281c-14.336 9.602-32.983 9.602-47.319 0l-166.57-111.060 44.799 193.963c3.328 14.503-1.109 29.737-11.776 40.107l-129.62 126.379 174.506 13.906z" />
<glyph unicode="&#xe905;" glyph-name="instagram" d="M893.696 605.654c-0.469 32.299-6.443 64.341-17.877 94.549-20.011 51.584-60.757 92.373-112.341 112.341-29.824 11.221-61.355 17.237-93.269 17.92-41.045 1.835-54.059 2.347-158.251 2.347s-117.548 0-158.295-2.347c-31.872-0.683-63.403-6.699-93.227-17.92-51.584-19.968-92.373-60.757-112.341-112.341-11.221-29.824-17.28-61.355-17.877-93.227-1.835-41.088-2.389-54.101-2.389-158.295 0-104.192 0-117.504 2.389-158.293 0.64-31.915 6.656-63.403 17.877-93.312 20.011-51.541 60.757-92.331 112.384-112.299 29.696-11.605 61.227-18.176 93.227-19.2 41.088-1.835 54.101-2.389 158.295-2.389 104.192 0 117.547 0 158.293 2.389 31.872 0.64 63.403 6.656 93.269 17.877 51.584 20.011 92.331 60.8 112.341 112.341 11.221 29.867 17.237 61.355 17.877 93.312 1.835 41.045 2.389 54.059 2.389 158.293-0.085 104.194-0.085 117.42-2.475 158.252zM511.701 251.647c-108.972 0-197.249 88.277-197.249 197.248s88.277 197.25 197.249 197.25c108.885 0 197.248-88.277 197.248-197.25 0-108.971-88.363-197.248-197.248-197.248zM716.8 607.446c-25.472 0-45.995 20.565-45.995 45.995s20.523 45.995 45.995 45.995c25.387 0 45.952-20.565 45.952-45.995s-20.565-45.995-45.952-45.995zM511.706 320.767c70.763 0 128.128 57.365 128.128 128.128 0 70.767-57.365 128.13-128.128 128.13s-128.128-57.363-128.128-128.13c0-70.763 57.365-128.128 128.128-128.128z" />
<glyph unicode="&#xe906;" glyph-name="link" d="M361.172 478.167c48.343 48.34 132.652 48.34 180.992 0l30.167-30.167 60.331 60.331-30.167 30.167c-40.233 40.277-93.822 62.505-150.825 62.505s-110.593-22.228-150.828-62.505l-90.539-90.498c-83.115-83.156-83.115-218.539 0-301.694 41.6-41.602 96.213-62.379 150.828-62.379 54.654 0 109.312 20.777 150.869 62.379l30.164 30.164-60.331 60.331-30.164-30.164c-49.92-49.794-131.116-49.879-181.036 0-49.877 49.92-49.877 131.113 0 181.033l90.538 90.498zM511.993 749.695l-30.164-30.165 60.331-60.331 30.164 30.165c49.879 49.792 131.072 49.877 181.036 0 49.876-49.92 49.876-131.114 0-181.034l-90.539-90.498c-48.343-48.34-132.652-48.34-180.992 0l-30.167 30.167-60.331-60.331 30.167-30.167c40.233-40.277 93.822-62.505 150.825-62.505s110.592 22.228 150.828 62.505l90.539 90.498c83.115 83.156 83.115 218.538 0 301.695-83.2 83.2-218.583 83.157-301.698 0z" />
<glyph unicode="&#xe907;" glyph-name="mail" d="M853.333 789.333h-682.667c-47.061 0-85.333-38.272-85.333-85.333v-512c0-47.061 38.272-85.333 85.333-85.333h682.667c47.061 0 85.333 38.272 85.333 85.333v512c0 47.061-38.272 85.333-85.333 85.333zM853.333 704v-21.803l-341.333-265.515-341.333 265.472v21.845h682.667zM170.667 192v382.123l315.136-245.12c7.68-6.016 16.939-9.003 26.197-9.003s18.517 2.987 26.197 9.003l315.136 245.12 0.085-382.123h-682.752z" />
<glyph unicode="&#xe908;" glyph-name="office" d="M882.061 838.352l-268.774 78.223c-4.186 1.223-8.653 0.961-12.672-0.743l-460.755-195.561c-7.136-3.042-11.784-10.15-11.787-18.031v-508.457c0-10.726 8.479-19.447 19.006-19.558-10.603-0.064-19.145-8.875-19.078-19.674 0.050-8.405 5.367-15.838 13.204-18.458l460.754-156.45c1.963-0.644 4.006-0.977 6.067-0.977 1.783 0.013 3.554 0.273 5.261 0.781l268.774 78.225c8.239 2.394 13.926 10.052 13.939 18.778v743.128c-0.017 8.723-5.7 16.383-13.939 18.774zM155.871 176.299l115.189 58.671c6.496 3.311 10.598 10.082 10.598 17.481v414.943l345.568 88.002v-656.144l-477.039 74.743c-0.902 0.154-1.812 0.23-2.726 0.235 2.921 0.038 5.795 0.747 8.41 2.069z" />
<glyph unicode="&#xe909;" glyph-name="qr" d="M769.676 717.221h-92.303c-6.373 0-11.54-5.166-11.54-11.538v-92.303c0-6.373 5.168-11.54 11.54-11.54h92.303c6.373 0 11.537 5.168 11.537 11.54v92.303c0 6.372-5.164 11.538-11.537 11.538zM786.019 303.753h-115.381c-7.963 0-14.421-6.455-14.421-14.421v-115.381c0-7.963 6.458-14.421 14.421-14.421h115.381c7.967 0 14.421 6.458 14.421 14.421v115.381c0 7.967-6.455 14.421-14.421 14.421zM641.792 419.147h-86.535c-7.967 0-14.425-6.458-14.425-14.425v-86.535c0-7.963 6.458-14.421 14.425-14.421h86.535c7.963 0 14.421 6.458 14.421 14.421v86.535c0 7.967-6.458 14.425-14.421 14.425zM901.407 159.56h-86.535c-7.963 0-14.421-6.458-14.421-14.425v-86.535c0-7.963 6.458-14.421 14.421-14.421h86.535c7.967 0 14.425 6.458 14.425 14.421v86.535c0 7.967-6.458 14.425-14.425 14.425zM901.414 419.147h-57.692c-7.963 0-14.421-6.458-14.421-14.425v-57.689c0-7.967 6.458-14.421 14.421-14.421h57.692c7.963 0 14.421 6.455 14.421 14.421v57.689c0 7.967-6.458 14.425-14.421 14.425zM612.946 130.744h-57.689c-7.967 0-14.425-6.455-14.425-14.421v-57.689c0-7.967 6.458-14.425 14.425-14.425h57.689c7.967 0 14.421 6.458 14.421 14.425v57.689c0 7.967-6.455 14.421-14.421 14.421zM604.293 788.318v-248.069h248.067v248.069h-248.067zM535.067 794.087c0 35.047 28.413 63.459 63.457 63.459h259.608c35.045 0 63.457-28.412 63.457-63.459v-259.607c0-35.048-28.413-63.457-63.457-63.457h-259.608c-35.045 0-63.457 28.409-63.457 63.457v259.607zM346.61 717.217h-92.306c-6.372 0-11.538-5.166-11.538-11.538v-92.303c0-6.373 5.166-11.54 11.538-11.54h92.306c6.369 0 11.537 5.168 11.537 11.54v92.303c0 6.372-5.168 11.538-11.537 11.538zM171.628 788.318v-248.069h248.068v248.069h-248.068zM102.4 794.087c0 35.047 28.412 63.459 63.459 63.459h259.606c35.048 0 63.457-28.412 63.457-63.459v-259.607c0-35.048-28.409-63.457-63.457-63.457h-259.606c-35.047 0-63.459 28.409-63.459 63.457v259.607zM346.61 294.158h-92.306c-6.372 0-11.538-5.164-11.538-11.537v-92.303c0-6.373 5.166-11.54 11.538-11.54h92.306c6.369 0 11.537 5.168 11.537 11.54v92.303c0 6.373-5.168 11.537-11.537 11.537zM171.628 355.721v-248.067h248.068v248.067h-248.068zM102.4 361.492c0 35.045 28.412 63.457 63.459 63.457h259.606c35.048 0 63.457-28.413 63.457-63.457v-259.608c0-35.048-28.409-63.457-63.457-63.457h-259.606c-35.047 0-63.459 28.409-63.459 63.457v259.608z" />
<glyph unicode="&#xe90a;" glyph-name="search" d="M426.667 746.655c-56.579 0-110.842-22.477-150.849-62.487s-62.484-94.275-62.484-150.856c0-56.585 22.476-110.848 62.484-150.857s94.27-62.49 150.849-62.49c56.58 0 110.844 22.481 150.848 62.49 40.009 40.009 62.485 94.272 62.485 150.857 0 56.582-22.477 110.846-62.485 150.856-40.004 40.010-94.268 62.487-150.848 62.487zM128 533.312c0 47.308 11.238 93.94 32.786 136.055s52.794 78.509 91.161 106.185c38.367 27.675 82.759 45.841 129.52 53.001s94.556 3.108 139.446-11.82c44.885-14.928 85.589-40.306 118.75-74.045s57.835-74.872 71.991-120.014c14.153-45.141 17.382-93.001 9.417-139.631-7.962-46.635-26.884-90.709-55.215-128.597l217.643-217.613c8.004-8 12.506-18.854 12.51-30.17 0.004-11.319-4.489-22.178-12.489-30.182-8-8.009-18.854-12.51-30.17-12.514-11.319 0-22.178 4.489-30.182 12.493l-217.6 217.609c-44.395-33.212-97.156-53.406-152.375-58.334-55.223-4.924-110.725 5.623-160.294 30.455s-91.248 62.972-120.372 110.148c-29.123 47.177-44.541 101.53-44.527 156.975z" />
<glyph unicode="&#xe90b;" glyph-name="x" d="M690.859 689.323l-181.035-180.992-180.993 180.992-60.331-60.331 180.993-180.992-180.993-180.992 60.331-60.331 180.993 180.992 181.035-180.992 60.331 60.331-180.992 180.992 180.992 180.992-60.331 60.331z" />
<glyph unicode="&#xe90c;" glyph-name="zalo" d="M979.989 256.218c-0.209 1.822 0.841 4.467-1.988 5.047-1.971 0.401-3.187-1.442-4.194-2.842-4.356-5.009-9.203-9.609-14.468-13.743-51.755-44.535-113.182-77.585-179.883-96.772-79.185-22.972-159.339-29.824-241.293-15.684-28.659 4.949-56.606 12.659-84.429 20.39-14.81 4.416-30.652 4.574-45.557 0.461-15.556-4.369-31.448-7.791-46.963-12.22-48.409-13.798-97.636-16.96-147.681-11.354-1.401 0-2.775 0.375-3.964 1.084s-2.148 1.719-2.766 2.923c-1.384 2.884 1.279 4.723 3.27 6.165 4.466 3.247 9.183 6.191 13.858 9.173 24.446 15.701 46.418 33.89 61.576 58.402 7.338 11.878 11.447 24.495 1.069 37.154-1.205 2.752-2.989 5.239-5.241 7.309-18.869 20.868-37.926 41.399-54.636 63.889-74.344 100.139-89.816 209.732-53.84 325.536 29.352 94.412 92.815 165.591 178.605 219.066 7.296 4.547 14.865 8.692 23.293 13.579-1.11 0.347-2.245 0.615-3.397 0.801-70.193-0.621-140.469 0.681-210.598-1.202-33.44-0.901-60.926-12.938-83.631-35.63-14.571-14.42-26.102-30.863-29.562-51.031-2.977-17.545-2.662-35.409-2.83-53.154-0.727-86.588-1.237-173.175-1.53-259.761-0.349-116.164-0.538-232.329-0.566-348.489-0.172-2.739 0.097-5.491 0.797-8.154 6.541-19.004 14.298-37.632 28.723-52.753 16.584-17.404 34.593-33.165 60.36-36.57 21.795-2.854 43.8-3.981 65.79-3.366 6.289-0.38 12.579-1.041 18.869-1.079 95.121-0.542 190.241-1.182 285.385-1.425 117.406-0.299 234.812-1.638 352.218 0.661 37.845 0.742 69.44 13.5 95.036 39.578 18.411 18.743 30.255 40.478 30.255 67.174 0 27.277 0.943 54.554 1.195 81.835 0.021 15.002 0.482 30.042-1.28 45.001zM313.118 628.106c-10.127-1.262-18.869-10.134-19.016-18.966-0.147-8.432 8.218-16.824 18.387-18.606 7.251-1.034 14.578-1.51 21.909-1.422 18.303-0.361 36.669 0.761 54.95-1.041 2.746-0.26 6.458 0.781 7.967-1.783s-1.719-4.907-3.334-6.99c-7.296-9.453-14.676-18.806-22.223-28.039-25.704-31.886-51.659-63.57-77.048-95.694-9.917-12.557-0.399-36.292 17.988-36.049 11.489 0.119 23.062-1.242 34.488-1.323 34.048-0.239 68.117 0.499 102.123-0.602 11.866-0.38 17.694 4.446 22.686 12.996 1.809 2.769 2.684 6.007 2.505 9.267s-1.404 6.387-3.511 8.96c-6.289 8.853-15.578 11.174-25.997 11.234-21.218 0.124-42.414 0.222-63.631 0.482-6.961 0-14.026-0.341-21.804 1.805 1.3 1.86 1.95 2.923 2.726 3.883 26.291 32.047 52.666 64.090 78.81 96.316 9.289 11.436 18.534 22.992 24.905 36.271 7.13 14.841 1.028 25.736-15.701 28.22-25.997 3.865-52.204 3.404-78.348 3.345-19.582-0.18-39.269 0.14-58.829-2.263zM588.39 422.827c6.622 4.006 11.174 3.785 17.003-1.22 7.735-6.63 17.19-8.653 26.982-4.245 9.792 4.403 13.376 12.476 14.191 22.468 1.408 17.485 1.446 34.97 1.468 52.476-0.102 22.251 0.61 44.562-2.85 66.633-2.266 14.48-16.124 21.791-30.588 16.803-4.122-1.614-7.957-3.83-11.362-6.569-4.322-3.165-8.073-3.225-12.834-0.361-44.74 26.857-106.044-0.421-113.946-50.493-2.001-13.884-1.92-27.972 0.23-41.835 7.108-50.671 64.239-82.159 111.706-53.658zM527.987 513.634c5.722 14.579 18.637 23.273 34.133 22.792 7.505-0.291 14.707-2.894 20.535-7.419 5.828-4.527 9.963-10.735 11.793-17.694 3.789-11.831 2.731-24.597-2.957-35.712-7.735-14.801-21.363-22.293-35.934-19.887-7.765 1.404-14.865 5.129-20.279 10.628-5.414 5.504-8.862 12.501-9.847 19.994-0.465 3.204-0.486 6.447-0.695 9.694-0.098 6.012 1.007 11.989 3.251 17.604zM782.741 422.042c30.255-15.142 61.935-14.921 91.243 2.603 29.312 17.523 39.142 44.284 38.682 76.966-0.798 54.738-59.311 92.631-116.378 73.785-29.141-9.614-55.561-38.394-54.387-78.107-0.124-32.708 10.15-59.904 40.841-75.247zM814.191 533.978c12.851 5.428 25.724 3.044 36.126-6.007 17.463-15.283 19.789-58.223-12.16-70.438-12.582-4.787-28.809-0.341-38.14 11.537-6.519 8.329-9.097 17.843-9.075 30.942 0.964 13.397 6.477 26.935 23.249 34.007v-0.040zM677.222 423.659c2.748-3.721 6.699-6.477 11.243-7.842 4.544-1.37 9.434-1.271 13.918 0.269 10.731 3.627 18.010 12.318 18.010 21.534 0 30.025 0 60.070 0 90.125 0 11.495 0.124 23.011 0 34.527-0.252 21.25 1.173 42.54-1.092 63.749-1.591 14.881-10.483 21.41-26.082 20.028-13.248-1.082-21.679-9.574-21.76-21.891 0-8.512 0-17.004-0.149-25.516-0.964-53.034-2.095-106.15 0-159.082 0.158-5.764 2.231-11.332 5.914-15.902z" />
<glyph unicode="&#xe90d;" glyph-name="bell" d="M512 21.336c55.936 0 102.7 35.584 120.236 85.332h-240.472c17.536-49.748 64.3-85.332 120.236-85.332zM810.668 337.664v195.672c0 137.257-93.228 252.884-219.52 287.657-12.504 31.488-43.052 53.675-79.148 53.675s-66.644-22.187-79.148-53.675c-126.292-34.816-219.519-150.4-219.519-287.657v-195.672l-72.832-72.832c-8.021-7.976-12.501-18.816-12.501-30.164v-42.668c0-23.592 19.072-42.664 42.667-42.664h682.665c23.596 0 42.668 19.072 42.668 42.664v42.668c0 11.348-4.48 22.188-12.5 30.164l-72.832 72.832z" />
<glyph unicode="&#xe90e;" glyph-name="book" d="M256 21.335h640v85.332h-639.488c-19.712 0.512-43.179 8.318-43.179 42.668 0 34.346 23.467 42.153 43.179 42.665h639.488v597.334c0 47.062-38.274 85.334-85.332 85.334h-554.668c-51.456 0-128-34.091-128-128v-597.332c0-93.91 76.544-128 128-128zM213.333 618.668v128c0 34.346 23.467 42.154 42.667 42.666h554.668v-511.998h-597.334v341.332zM341.338 704h384v-85.332h-384v85.332z" />
<glyph unicode="&#xe90f;" glyph-name="cake" d="M725.211 320c-68.308 0-104.364 28.844-133.332 52.012-24.192 19.328-41.688 33.32-80.128 33.32-38.316 0-54.912-13.268-79.96-33.28-28.968-23.208-65.024-52.052-133.332-52.052-68.31 0-104.278 28.844-133.248 52.052-25.046 20.012-41.6 33.28-79.872 33.28v-213.332c0-47.060 38.272-85.332 85.333-85.332h682.667c47.060 0 85.332 38.272 85.332 85.332v213.332c-38.356 0-54.952-13.268-80.040-33.32-29.016-23.168-65.068-52.012-133.42-52.012zM810.672 746.666h-256v128h-85.332v-128h-256c-70.571 0-128-57.429-128-128v-127.999c68.266 0 104.234-28.844 133.205-52.056 25.045-20.008 41.6-33.28 79.915-33.28 38.357 0 54.912 13.272 80 33.324 28.972 23.168 65.024 52.012 133.292 52.012 68.352 0 104.404-28.844 133.416-52.012 25.088-20.052 41.688-33.324 80.044-33.324 38.4 0 55.936 13.996 80.128 33.324 28.972 23.168 65.024 52.012 133.332 52.012v127.999c0 70.57-57.428 128-128 128z" />
<glyph unicode="&#xe910;" glyph-name="question-popup" d="M512.003 812.8c-201.472 0-364.799-163.325-364.799-364.8s163.327-364.8 364.799-364.8c201.475 0 364.8 163.325 364.8 364.8s-163.325 364.8-364.8 364.8zM108.803 448c0 222.682 180.518 403.2 403.199 403.2s403.2-180.518 403.2-403.2c0-222.682-180.518-403.2-403.2-403.2s-403.199 180.518-403.199 403.2zM455.672 647.995c26.898 11.141 56.494 14.057 85.048 8.376s54.781-19.699 75.369-40.284c20.585-20.588 34.606-46.815 40.284-75.369 5.681-28.554 2.765-58.153-8.376-85.048-11.141-26.898-30.008-49.887-54.213-66.063-18.849-12.593-40.276-20.616-62.582-23.549v-14.057c0-10.604-8.596-19.2-19.2-19.2s-19.2 8.596-19.2 19.2v32c0 10.604 8.596 19.2 19.2 19.2 21.519 0 42.555 6.382 60.447 18.337 17.892 11.953 31.836 28.946 40.072 48.827s10.388 41.756 6.193 62.861c-4.198 21.107-14.561 40.492-29.778 55.708-15.214 15.217-34.601 25.577-55.706 29.775-21.107 4.198-42.982 2.045-62.863-6.19s-36.872-22.18-48.827-40.072c-11.955-17.892-18.337-38.927-18.337-60.447 0-10.604-8.596-19.2-19.2-19.2s-19.2 8.596-19.2 19.2c0 29.112 8.635 57.572 24.809 81.779s39.163 43.075 66.061 54.216zM512 184c22.090 0 40 17.91 40 40s-17.91 40-40 40c-22.090 0-40-17.91-40-40s17.91-40 40-40z" />
<glyph unicode="&#xe911;" glyph-name="check" d="M426.665 294.997l-140.501 140.501-60.331-60.331 200.832-200.832 414.167 414.167-60.331 60.331-353.836-353.836z" />
<glyph unicode="&#xe912;" glyph-name="checkbox" d="M810.667 832h-597.333c-47.061 0-85.333-38.272-85.333-85.333v-597.333c0-47.061 38.272-85.333 85.333-85.333h597.333c47.061 0 85.333 38.272 85.333 85.333v597.333c0 47.061-38.272 85.333-85.333 85.333zM213.333 149.333v597.333h597.333l0.085-597.333h-597.419z" />
<glyph unicode="&#xe913;" glyph-name="check-square" d="M810.667 832h-597.333c-47.061 0-85.333-38.272-85.333-85.333v-597.333c0-47.061 38.272-85.333 85.333-85.333h597.333c47.061 0 85.333 38.272 85.333 85.333v597.333c0 47.061-38.272 85.333-85.333 85.333zM472.192 256.811l-161.024 161.024 60.331 60.331 94.976-94.976 183.424 220.117 65.579-54.613-243.285-291.883z" />
<glyph unicode="&#xe914;" glyph-name="down" d="M695.166 563.497l-183.166-183.169-183.169 183.169-60.331-60.33 243.5-243.499 243.498 243.499-60.332 60.33z" />
<glyph unicode="&#xe915;" glyph-name="edit" d="M812.587 644.224c16.128 16.128 25.003 37.547 25.003 60.331s-8.875 44.203-25.003 60.331l-67.669 67.669c-16.128 16.128-37.547 25.003-60.331 25.003s-44.203-8.875-60.288-24.96l-453.632-452.224v-188.373h188.288l453.632 452.224zM684.587 772.224l67.712-67.627-67.84-67.584-67.669 67.627 67.797 67.584zM256 277.333v67.627l300.373 299.435 67.669-67.669-300.331-299.392h-67.712zM170.667 106.667h682.667v-85.333h-682.667v85.333z" />
<glyph unicode="&#xe916;" glyph-name="face" d="M512.007 874.665c-235.265 0-426.668-191.403-426.668-426.665 0-235.264 191.402-426.668 426.668-426.668 235.264 0 426.664 191.404 426.664 426.668s-191.4 426.665-426.664 426.665zM512.007 106.664c-188.204 0-341.335 153.132-341.335 341.336 0 49.832 11.008 97.064 30.251 139.776 6.57-3.84 13.141-7.768 19.456-11.776 16.896-10.668 33.749-21.336 54.869-29.356 21.077-7.98 46.421-13.312 80.171-13.312 33.792 0 59.136 5.332 80.256 13.356 21.12 8.020 38.016 18.644 54.912 29.312 16.896 10.664 33.792 21.332 54.912 29.353 21.076 7.978 46.42 13.312 80.212 13.312s59.136-5.334 80.216-13.355c21.12-7.979 38.016-18.646 54.912-29.311 16.896-10.668 33.792-21.336 54.912-29.356 7.592-2.86 15.956-5.204 24.788-7.296 8.148-29.1 12.8-59.648 12.8-91.348 0-188.204-153.132-341.336-341.332-341.336zM362.661 362.664c35.346 0 64 28.654 64 64s-28.654 64-64 64c-35.346 0-64-28.654-64-64s28.654-64 64-64zM661.339 362.664c35.346 0 64 28.654 64 64s-28.654 64-64 64c-35.346 0-64-28.654-64-64s28.654-64 64-64z" />
<glyph unicode="&#xe917;" glyph-name="facebook" d="M853.333 832h-682.667c-23.595 0-42.667-19.115-42.667-42.667v-682.667c0-23.552 19.072-42.667 42.667-42.667h367.573v296.96h-99.755v116.267h99.755v85.333c0 99.2 60.587 153.259 149.333 153.259 29.824 0.085 59.691-1.451 89.387-4.565v-103.253h-61.227c-48.128 0-57.515-22.955-57.515-56.533v-74.027h115.072l-14.933-116.267h-100.181v-297.173h195.157c23.595 0 42.667 19.115 42.667 42.667v682.667c0 23.552-19.072 42.667-42.667 42.667z" />
<glyph unicode="&#xe918;" glyph-name="bell-thin" d="M810.668 380.332v153.002c0 137.259-93.231 252.886-219.522 287.659-12.502 31.488-43.050 53.675-79.146 53.675s-66.645-22.187-79.147-53.675c-126.293-34.816-219.52-150.4-219.52-287.659v-153.002l-72.832-72.834c-8.021-7.978-12.501-18.814-12.501-30.161v-85.336c0-23.594 19.072-42.664 42.667-42.664h682.665c23.599 0 42.668 19.070 42.668 42.664v85.336c0 11.348-4.478 22.184-12.502 30.161l-72.83 72.834zM810.668 234.668h-597.335v25.004l72.832 72.83c8.022 7.978 12.502 18.818 12.502 30.166v170.666c0 117.632 95.701 213.334 213.333 213.334 117.634 0 213.332-95.702 213.332-213.334v-170.666c0-11.348 4.482-22.188 12.502-30.166l72.834-72.83v-25.004zM512 21.336c55.934 0 102.698 35.584 120.236 85.332h-240.471c17.536-49.748 64.299-85.332 120.235-85.332z" />
<glyph unicode="&#xe919;" glyph-name="group" d="M405.339 448c94.124 0 170.668 76.544 170.668 170.666s-76.544 170.667-170.668 170.667c-94.123 0-170.667-76.544-170.667-170.667s76.544-170.666 170.667-170.666zM469.339 405.332h-128c-141.184 0-256-114.816-256-256v-42.664h640v42.664c0 141.184-114.816 256-256 256zM708.443 488.62c25.772 43.904 37.204 95.060 32.044 146.772-7.64 76.117-50.136 143.403-119.596 189.44l-47.148-71.083c47.744-31.658 76.8-76.757 81.836-126.89 4.692-47.147-11.948-93.611-45.74-127.403l-50.856-50.86 69.032-20.264c180.568-52.908 182.656-234.496 182.656-236.332h85.336c0 76.332-40.792 225.492-187.564 296.62z" />
<glyph unicode="&#xe91a;" glyph-name="heart" d="M512.003 763.946c-47.104 42.923-107.179 66.475-170.496 66.475-67.328 0-131.072-26.581-179.755-75.008-100.395-100.821-100.352-258.517 0.085-358.913l312.83-312.832c7.253-12.756 21.248-20.992 37.335-20.992 13.739 0 25.982 6.956 33.792 17.452l316.375 316.372c100.437 100.437 100.437 258.092-0.089 359.084-48.51 48.256-112.254 74.837-179.582 74.837-63.276 0-123.392-23.552-170.496-66.475zM801.754 695.253c66.686-67.029 66.727-171.733 0.085-238.423l-289.836-289.833-289.835 289.833c-66.645 66.69-66.603 171.393-0.085 238.252 32.427 32.256 74.837 50.005 119.424 50.005 44.585 0 86.825-17.749 118.996-49.92l21.333-21.333c16.684-16.683 43.65-16.683 60.331 0l21.333 21.333c64.512 64.384 173.827 64.213 238.254 0.085z" />
<glyph unicode="&#xe91b;" glyph-name="cog" d="M511.998 277.33c94.123 0 170.667 76.544 170.667 170.67 0 94.121-76.544 170.665-170.667 170.665s-170.666-76.544-170.666-170.665c0-94.126 76.544-170.67 170.666-170.67zM511.998 533.332c46.251 0 85.332-39.083 85.332-85.332 0-46.254-39.081-85.335-85.332-85.335s-85.334 39.081-85.334 85.335c0 46.249 39.083 85.332 85.334 85.332zM121.388 271.529l42.666-73.815c22.656-39.122 77.184-53.801 116.48-31.145l22.571 13.056c24.832-19.497 52.096-35.497 80.896-47.447v-25.513c0-47.063 38.272-85.335 85.333-85.335h85.336c47.058 0 85.33 38.272 85.33 85.335v25.513c28.8 11.95 56.064 27.95 80.896 47.406l22.574-13.056c39.378-22.615 93.778-8.023 116.521 31.186l42.624 73.774c23.552 40.745 9.559 93.056-31.191 116.562l-21.545 12.462c2.304 15.826 3.456 31.657 3.456 47.488 0 15.828-1.152 31.7-3.456 47.401l21.545 12.459c40.75 23.552 54.743 75.818 31.191 116.565l-42.624 73.771c-22.656 39.253-77.143 53.973-116.521 31.232l-22.574-13.056c-24.832 19.498-52.096 35.498-80.896 47.445v25.515c0 47.061-38.272 85.333-85.33 85.333h-85.336c-47.061 0-85.333-38.272-85.333-85.333v-25.515c-28.8-11.946-56.064-27.946-80.896-47.402l-22.571 13.056c-39.424 22.656-93.866 7.978-116.522-31.232l-42.624-73.77c-23.552-40.747-9.558-93.056 31.19-116.566l21.546-12.458c-2.304-15.744-3.456-31.616-3.456-47.444 0-15.831 1.152-31.662 3.456-47.406l-21.546-12.457c-40.747-23.552-54.742-75.863-31.19-116.608zM263.298 389.202c-4.822 19.328-7.296 39.127-7.296 58.798 0 19.711 2.474 39.508 7.253 58.793 4.608 18.475-3.541 37.76-20.053 47.275l-47.915 27.733 42.582 73.771 48.854-28.246c16.384-9.43 36.992-7.040 50.688 6.058 29.141 27.606 64.298 48.256 101.717 59.691 17.963 5.461 30.208 22.058 30.208 40.789v55.467h85.336v-55.467c0-18.73 12.242-35.328 30.208-40.789 37.417-11.478 72.576-32.086 101.714-59.691 13.696-13.098 34.391-15.445 50.688-6.058l48.814 28.202 42.665-73.77-47.959-27.69c-16.512-9.558-24.658-28.843-20.050-47.275 4.777-19.285 7.25-39.082 7.25-58.793 0-19.671-2.473-39.47-7.296-58.798-4.562-18.473 3.584-37.76 20.096-47.273l47.918-27.689-42.583-73.774-48.855 28.206c-16.338 9.426-36.992 7.081-50.688-6.062-29.138-27.602-64.297-48.256-101.714-59.689-17.966-5.463-30.208-22.057-30.208-40.791l0.082-55.465h-85.417v55.465c0 18.734-12.245 35.328-30.208 40.791-37.418 11.479-72.576 32.087-101.717 59.689-8.107 7.767-18.688 11.735-29.355 11.735-7.338 0-14.677-1.879-21.333-5.719l-48.811-28.242-42.666 73.769 47.958 27.776c16.512 9.513 24.661 28.8 20.096 47.273z" />
<glyph unicode="&#xe91c;" glyph-name="attach" d="M180.139 116.139c41.6-41.6 96.213-62.379 150.827-62.379 54.656 0.043 109.312 20.779 150.869 62.379l120.661 120.704-60.331 60.331-120.661-120.704c-49.877-49.792-131.072-49.877-181.035 0-49.877 49.92-49.877 131.115 0 181.035l120.704 120.661-60.331 60.331-120.704-120.661c-83.157-83.157-83.157-218.539 0-301.696zM843.861 478.165c83.115 83.157 83.115 218.539 0 301.696-83.2 83.2-218.581 83.115-301.696 0l-120.661-120.704 60.331-60.331 120.661 120.704c49.92 49.792 131.115 49.877 181.035 0 49.877-49.92 49.877-131.115 0-181.035l-120.704-120.661 60.331-60.331 120.704 120.661zM361.114 236.783l-60.339 60.343 362.077 362.061 60.339-60.341-362.077-362.063z" />
<glyph unicode="&#xe91d;" glyph-name="plus" d="M810.665 490.666h-256v256h-85.334v-256h-256v-85.331h256v-256h85.334v256h256v85.331z" />
<glyph unicode="&#xe91e;" glyph-name="log-out" d="M682.665 405.33v85.336h-384.001v128l-213.333-170.665 213.333-170.67v128h384.001zM853.335 832h-384.002c-47.062 0-85.334-38.272-85.334-85.334v-170.666h85.334v170.666h384.002v-597.331h-384.002v170.665h-85.334v-170.665c0-47.063 38.272-85.335 85.334-85.335h384.002c47.058 0 85.33 38.272 85.33 85.335v597.331c0 47.062-38.272 85.334-85.33 85.334z" />
<glyph unicode="&#xe91f;" glyph-name="send" d="M914.176 486.613l-725.334 341.332c-14.933 6.997-32.555 4.821-45.269-5.675-12.757-10.453-18.261-27.307-14.293-43.264l51.712-206.891 331.008-124.116-331.008-124.117-51.712-206.891c-4.011-15.957 1.536-32.853 14.293-43.307 7.808-6.4 17.365-9.685 27.093-9.685 6.187 0 12.373 1.323 18.176 4.053l725.334 341.333c14.933 7.040 24.491 22.059 24.491 38.613s-9.557 31.573-24.491 38.613z" />
<glyph unicode="&#xe920;" glyph-name="notepad" d="M810.668 789.333h-128v85.334h-85.336v-85.334h-170.664v85.334h-85.335v-85.334h-128c-47.061 0-85.333-38.272-85.333-85.333v-597.332c0-47.064 38.272-85.336 85.333-85.336h597.335c47.060 0 85.332 38.272 85.332 85.336v597.332c0 47.061-38.272 85.333-85.332 85.333zM512 362.668h-213.333v85.332h213.333v-85.332zM725.332 533.332h-426.665v85.334h426.665v-85.334z" />
<glyph unicode="&#xe921;" glyph-name="even" d="M810.668 789.333h-85.336v85.334h-85.332v-85.334h-256v85.334h-85.333v-85.334h-85.334c-47.061 0-85.333-38.272-85.333-85.333v-597.332c0-47.064 38.272-85.336 85.333-85.336h597.335c47.060 0 85.332 38.272 85.332 85.336v597.332c0 47.061-38.272 85.333-85.332 85.333zM614.912 149.332l-104.492 54.956-104.488-54.956 19.968 116.396-84.567 82.348 116.823 16.98 52.264 105.812 52.268-105.812 116.82-16.98-84.52-82.392 19.924-116.352zM810.668 576h-597.335v85.333h597.335v-85.333z" />
<glyph unicode="&#xe922;" glyph-name="phone-call" d="M853.333 490.709h85.333c0 218.88-165.248 383.957-384.427 383.957v-85.333c173.312 0 299.093-125.568 299.093-298.624zM554.667 618.667c89.728 0 128-38.272 128-128h85.333c0 137.6-75.733 213.333-213.333 213.333v-85.333zM700.672 386.432c-17.024 15.488-43.307 14.677-59.349-1.835l-102.101-105.003c-24.576 4.693-73.984 20.096-124.841 70.827-50.859 50.901-66.261 100.437-70.827 124.843l104.916 102.144c16.555 16.043 17.323 42.283 1.835 59.349l-157.652 173.355c-15.488 17.109-41.813 18.731-59.349 3.712l-92.587-79.403c-7.381-7.424-11.776-17.237-12.373-27.691-0.64-10.667-12.843-263.339 183.083-459.349 170.921-170.88 385.022-183.381 443.988-183.381 8.619 0 13.909 0.256 15.317 0.341 10.453 0.597 20.267 4.992 27.648 12.416l79.36 92.629c15.061 17.536 13.355 43.819-3.669 59.349l-173.397 157.696z" />
<glyph unicode="&#xe923;" glyph-name="home" d="M470.146 834.754c11.433 10.396 26.332 16.157 41.785 16.158 15.456 0.001 30.356-5.759 41.788-16.155l320.024-290.94c6.403-5.822 11.52-12.917 15.020-20.832 3.503-7.915 5.31-16.474 5.31-25.13v-401.845c0-16.634-13.484-30.118-30.118-30.118-16.631 0-30.118 13.484-30.118 30.118v401.845c0 0.262-0.054 0.521-0.16 0.762-0.105 0.238-0.262 0.455-0.455 0.629l-320.024 290.942c-0.346 0.315-0.795 0.49-1.265 0.49-0.467 0-0.919-0.175-1.265-0.49v0l-319.979-290.939c-0.194-0.178-0.349-0.392-0.455-0.632-0.106-0.238-0.161-0.5-0.161-0.762v-401.845c0-16.634-13.484-30.118-30.118-30.118s-30.118 13.484-30.118 30.118v401.845c0 8.656 1.808 17.215 5.309 25.13 3.501 7.912 8.617 15.008 15.020 20.829l319.978 290.941zM33.838 96c0 16.634 13.484 30.118 30.118 30.118h895.999c16.634 0 30.118-13.484 30.118-30.118s-13.484-30.118-30.118-30.118h-895.999c-16.634 0-30.118 13.484-30.118 30.118zM385.816 352.030c0 16.634 13.484 30.118 30.118 30.118h192c16.634 0 30.118-13.484 30.118-30.118v-256c0-16.634-13.484-30.118-30.118-30.118s-30.118 13.484-30.118 30.118v225.882h-131.765v-225.882c0-16.634-13.484-30.118-30.118-30.118s-30.118 13.484-30.118 30.118v256z" />
<glyph unicode="&#xe924;" glyph-name="user" d="M320 682.667c0-105.856 86.144-192 192-192s192 86.144 192 192c0 105.856-86.144 192-192 192s-192-86.144-192-192zM853.333 64h42.667v42.667c0 164.651-134.016 298.667-298.667 298.667h-170.667c-164.693 0-298.667-134.016-298.667-298.667v-42.667h725.333z" />
<glyph unicode="&#xe925;" glyph-name="business" d="M896 661.333h-256c-23.595 0-42.667-19.072-42.667-42.667v-128h-85.333v298.667c0 23.595-19.072 42.667-42.667 42.667h-341.333c-23.595 0-42.667-19.072-42.667-42.667v-682.667c0-23.595 19.072-42.667 42.667-42.667h768c23.595 0 42.667 19.072 42.667 42.667v512c0 23.595-19.072 42.667-42.667 42.667zM341.333 704h85.333v-85.333h-85.333v85.333zM256 277.333h-85.333v85.333h85.333v-85.333zM256 448h-85.333v85.333h85.333v-85.333zM256 618.667h-85.333v85.333h85.333v-85.333zM426.667 277.333h-85.333v85.333h85.333v-85.333zM426.667 448h-85.333v85.333h85.333v-85.333zM810.667 277.333h-85.333v85.333h85.333v-85.333zM810.667 448h-85.333v85.333h85.333v-85.333z" />
<glyph unicode="&#xe926;" glyph-name="eye-show" d="M597.333 448c-46.72 0-85.333 38.613-85.333 85.333 0 15.104 4.395 29.141 11.435 41.515-3.84 0.299-7.509 1.152-11.435 1.152-70.059 0-128-57.984-128-128 0-70.059 57.941-128 128-128 70.016 0 128 57.941 128 128 0 3.925-0.853 7.595-1.152 11.435-12.373-7.040-26.411-11.435-41.515-11.435zM512 746.667c-325.673 0-423.55-282.325-424.446-285.184l-4.523-13.483 4.48-13.483c0.939-2.859 98.816-285.184 424.489-285.184 325.675 0 423.552 282.325 424.448 285.184l4.523 13.483-4.48 13.483c-0.939 2.859-98.816 285.184-424.491 285.184zM512 234.667c-228.308 0-316.756 164.096-338.174 213.333 21.504 49.408 109.995 213.333 338.174 213.333 228.309 0 316.757-164.096 338.176-213.333-21.504-49.408-109.995-213.333-338.176-213.333z" />
<glyph unicode="&#xe927;" glyph-name="eye-hide" d="M512 149.333c40.363 0 77.227 4.395 110.848 11.989l-74.965 74.965c-11.648-0.896-23.467-1.621-35.883-1.621-228.31 0-316.758 164.096-338.176 213.333 8.704 20.053 28.757 58.923 64.341 98.007l-59.648 59.648c-65.621-71.125-90.496-142.764-90.965-144.172-2.944-8.747-2.944-18.261 0-27.008 0.896-2.816 98.773-285.141 424.448-285.141zM512 746.668c-78.379 0-142.763-16.896-196.438-41.856l-157.397 157.355-60.331-60.331 768-768.001 60.331 60.331-141.611 141.611c111.531 83.243 151.339 196.907 151.936 198.699 2.944 8.747 2.944 18.261 0 27.008-0.939 2.859-98.816 285.185-424.491 285.185zM724.139 296.192l-97.28 97.28c8.107 16.64 13.141 34.944 13.141 54.528 0 70.016-57.984 128.001-128 128.001-19.584 0-37.888-5.035-54.485-13.184l-77.142 77.141c37.589 13.141 81.024 21.376 131.627 21.376 228.309 0 316.757-164.097 338.176-213.335-12.885-29.525-49.749-99.925-126.037-151.808z" />
<glyph unicode="&#xe928;" glyph-name="download" d="M512 277.333l170.667 213.333h-128v298.667h-85.333v-298.667h-128l170.667-213.333zM853.333 192h-682.667v298.667h-85.333v-298.667c0-47.061 38.272-85.333 85.333-85.333h682.667c47.061 0 85.333 38.272 85.333 85.333v298.667h-85.333v-298.667z" />
<glyph unicode="&#xe929;" glyph-name="brightness" d="M919.296 463.104l-108.628 108.588v153.641c0 11.776-9.56 21.333-21.336 21.333h-153.64l-108.632 108.629c-8.32 8.32-21.844 8.32-30.164 0l-108.588-108.629h-153.641c-11.776 0-21.333-9.557-21.333-21.333v-153.641l-108.629-108.632c-8.32-8.32-8.32-21.844 0-30.164l108.629-108.588v-153.64c0-11.776 9.557-21.336 21.333-21.336h153.641l108.632-108.628c8.32-8.32 21.844-8.32 30.164 0l108.588 108.628h153.64c11.776 0 21.336 9.56 21.336 21.336v153.64l108.628 108.632c8.32 8.32 8.32 21.8 0 30.164zM512 277.332c-94.252 0-170.666 76.416-170.666 170.668s76.415 170.666 170.666 170.666c94.252 0 170.668-76.415 170.668-170.666s-76.416-170.668-170.668-170.668z" />
<glyph unicode="&#xe92a;" glyph-name="request" d="M853.339 874.667h-682.667c-47.061 0-85.333-38.272-85.333-85.333v-768.001l170.666 170.668h597.334c47.060 0 85.332 38.272 85.332 85.332v512.001c0 47.061-38.272 85.333-85.332 85.333zM383.963 320.556h-85.291v85.288l235.947 235.607 85.248-85.291-235.904-235.604zM660.103 596.352l-85.292 85.291 65.024 64.981 85.292-85.29-65.024-64.982z" />
<glyph unicode="&#xe92b;" glyph-name="comment" d="M853.333 874.667h-682.667c-47.061 0-85.333-38.272-85.333-85.333v-768l227.541 170.667h540.459c47.061 0 85.333 38.272 85.333 85.333v512c0 47.061-38.272 85.333-85.333 85.333zM853.333 277.333h-568.875l-113.792-85.333v597.333h682.667v-512z" />
<glyph unicode="&#xe92c;" glyph-name="right-circle" d="M512 874.667c-235.264 0-426.667-191.403-426.667-426.667s191.403-426.667 426.667-426.667c235.264 0 426.667 191.403 426.667 426.667s-191.403 426.667-426.667 426.667zM512 106.667c-188.203 0-341.333 153.131-341.333 341.333s153.131 341.333 341.333 341.333c188.203 0 341.333-153.131 341.333-341.333s-153.131-341.333-341.333-341.333zM396.5 631.168l183.169-183.168-183.169-183.168 60.332-60.331 243.499 243.499-243.499 243.499-60.332-60.331z" />
<glyph unicode="&#xe92d;" glyph-name="star-bold" d="M936.411 568.363c-5.505 16.128-20.054 27.519-37.036 28.842l-243.243 19.327-105.257 233.004c-6.871 15.317-22.102 25.131-38.871 25.131-16.767 0-32-9.813-38.869-25.088l-105.259-233.046-243.242-19.327c-16.683-1.323-31.061-12.288-36.736-28.033-5.675-15.743-1.664-33.364 10.325-45.056l179.756-175.231-63.574-275.286c-3.926-17.023 2.943-34.73 17.322-44.671 7.34-5.036 15.788-7.596 24.277-7.596 8.235 0 16.513 2.39 23.681 7.168l232.319 154.88 232.321-154.88c14.848-9.898 34.347-9.513 48.853 1.024 14.422 10.539 20.779 29.014 15.872 46.166l-78.037 273.066 193.536 174.166c12.671 11.434 17.322 29.27 11.862 45.441z" />
<glyph unicode="&#xe92e;" glyph-name="check-circle" d="M512 874.667c-235.264 0-426.667-191.403-426.667-426.667s191.403-426.667 426.667-426.667c235.264 0 426.667 191.403 426.667 426.667s-191.403 426.667-426.667 426.667zM512 106.667c-188.203 0-341.333 153.131-341.333 341.333s153.131 341.333 341.333 341.333c188.203 0 341.333-153.131 341.333-341.333s-153.131-341.333-341.333-341.333zM426.628 380.288l-98.091 97.92-60.245-60.416 158.422-158.080 286.123 286.121-60.331 60.331-225.878-225.876z" />
<glyph unicode="&#xe92f;" glyph-name="x-circle" d="M391.331 267.008l120.661 120.661 120.661-120.661 60.331 60.331-120.661 120.661 120.661 120.661-60.331 60.331-120.661-120.661-120.661 120.661-60.331-60.331 120.661-120.661-120.661-120.661 60.331-60.331zM512 21.333c235.264 0 426.667 191.403 426.667 426.667s-191.403 426.667-426.667 426.667c-235.264 0-426.667-191.403-426.667-426.667s191.403-426.667 426.667-426.667zM512 789.333c188.203 0 341.333-153.131 341.333-341.333s-153.131-341.333-341.333-341.333c-188.203 0-341.333 153.131-341.333 341.333s153.131 341.333 341.333 341.333z" />
<glyph unicode="&#xe930;" glyph-name="learning-active" d="M963.765 566.23c0 2.988 0 5.975-3.012 11.948 0 0 0 0 0 2.988-3.012 5.972-6.024 11.948-12.047 14.935l-421.647 238.949c-9.035 5.974-21.082 5.974-30.118 0l-421.647-238.949c-9.035-8.963-15.059-17.923-15.059-29.871s6.024-20.908 15.059-26.88l421.647-238.95c6.024-2.988 9.035-2.988 15.059-2.988s9.035 0 15.059 2.988l376.471 215.055v-188.175c0-17.92 12.047-29.868 30.118-29.868s30.118 11.948 30.118 29.868v238.95zM210.824 405.384c-15.059 6.024-30.118-15.059-30.118-30.118v-114.447c0-12.047 6.024-21.082 15.059-27.106l240.941-138.541c21.082-12.047 45.176 3.012 45.176 27.106v117.459c0 6.024-3.012 12.047-9.035 15.059-45.176 27.106-240.941 141.553-262.024 150.588zM813.176 405.384c-15.059-6.024-216.847-123.482-262.024-147.576-6.024-3.012-9.035-9.035-9.035-18.071v-117.459c0-24.094 24.094-36.141 45.176-27.106l240.941 138.541c9.035 6.024 15.059 15.059 15.059 27.106v114.447c0 15.059-15.059 36.141-30.118 30.118z" />
<glyph unicode="&#xe931;" glyph-name="time" d="M512 874.665c-235.263 0-426.665-191.402-426.665-426.665s191.402-426.67 426.665-426.67c235.264 0 426.67 191.406 426.67 426.67 0 235.263-191.406 426.665-426.67 426.665zM512 106.665c-188.201 0-341.332 153.129-341.332 341.335 0 188.201 153.131 341.332 341.332 341.332 188.206 0 341.335-153.131 341.335-341.332 0-188.206-153.129-341.335-341.335-341.335zM554.67 661.335h-85.336v-230.999l140.504-140.498 60.329 60.329-115.497 115.498v195.67z" />
<glyph unicode="&#xe932;" glyph-name="mobile" d="M714.664 874.668h-426.666c-47.061 0-85.333-38.272-85.333-85.334v-682.666c0-47.060 38.272-85.332 85.333-85.332h426.666c47.064 0 85.336 38.272 85.336 85.332v682.666c0 47.062-38.272 85.334-85.336 85.334zM287.999 106.668v682.666h426.666l0.088-682.666h-426.753zM501.332 149.336c23.563 0 42.668 19.101 42.668 42.664 0 23.567-19.105 42.668-42.668 42.668s-42.668-19.101-42.668-42.668c0-23.563 19.105-42.664 42.668-42.664z" />
<glyph unicode="&#xe933;" glyph-name="minus" d="M213.333 490.667h597.333v-85.333h-597.333v85.333z" />
<glyph unicode="&#xe934;" glyph-name="caret-down" d="M511.917 234.665l298.666 341.335h-597.333l298.666-341.335z" />
<glyph unicode="&#xe935;" glyph-name="move" d="M768 490.667h-213.333v213.333h128l-170.667 170.667-170.667-170.667h128v-213.333h-213.333v128l-170.667-170.667 170.667-170.667v128h213.333v-213.333h-128l170.667-170.667 170.667 170.667h-128v213.333h213.333v-128l170.667 170.667-170.667 170.667v-128z" />
<glyph unicode="&#xe936;" glyph-name="chat" d="M213.333 192v-160.683l267.82 160.683h201.513c47.060 0 85.333 38.274 85.333 85.333v341.333c0 47.061-38.274 85.333-85.333 85.333h-512c-47.061 0-85.333-38.272-85.333-85.333v-341.333c0-47.060 38.272-85.333 85.333-85.333h42.667zM170.667 618.667h512v-341.333h-225.154l-158.846-95.317v95.317h-128v341.333zM853.333 874.667h-512c-47.061 0-85.333-38.272-85.333-85.333h512c47.060 0 85.333-38.272 85.333-85.333v-341.333c47.060 0 85.333 38.274 85.333 85.333v341.333c0 47.061-38.274 85.333-85.333 85.333z" />
<glyph unicode="&#xe937;" glyph-name="phone-thin" d="M755.504 435.497c-16.681 16.681-43.646 16.681-60.331 0l-68.011-68.011c-31.529 9.387-90.368 30.72-127.659 68.011s-58.624 96.126-68.011 127.659l68.011 68.010c16.684 16.683 16.684 43.648 0 60.331l-170.666 170.667c-16.683 16.683-43.648 16.683-60.331 0l-115.712-115.712c-16.213-16.213-25.344-38.485-25.003-61.227 0.981-60.757 17.067-271.788 183.381-438.102s377.343-182.357 438.145-183.381c0.212 0 0.98 0 1.195 0 22.528 0 43.817 8.875 59.945 25.003l115.712 115.712c16.684 16.684 16.684 43.65 0 60.331l-170.667 170.711zM750.087 149.118c-53.248 0.894-235.435 15.189-378.583 158.379-143.615 143.616-157.525 326.442-158.378 378.623l85.547 85.547 110.337-110.336-55.17-55.167c-10.196-10.155-14.549-24.832-11.605-38.912 1.024-4.908 26.071-121.259 96.898-192.085s187.177-95.874 192.085-96.898c14.206-3.028 28.757 1.365 38.912 11.564l55.211 55.166 110.336-110.336-85.589-85.545z" />
<glyph unicode="&#xe938;" glyph-name="phone-bold" d="M874.097 228.695l-173.44 157.696c-17.024 15.488-43.305 14.679-59.346-1.833l-102.103-105.006c-24.576 4.695-73.983 20.096-124.842 70.83-50.858 50.898-66.262 100.435-70.826 124.84l104.917 102.144c16.555 16.042 17.323 42.282 1.835 59.349l-157.654 173.398c-15.488 17.11-41.814 18.73-59.35 3.712l-92.586-79.402c-7.382-7.424-11.776-17.238-12.374-27.691-0.64-10.666-12.842-263.34 183.083-459.348 170.922-170.88 385.021-183.383 443.988-183.383 8.617 0 13.911 0.256 15.319 0.343 10.45 0.599 20.265 4.992 27.648 12.416l79.36 92.631c15.104 17.536 13.44 43.817-3.63 59.305z" />
<glyph unicode="&#xe939;" glyph-name="check-in" d="M511.987 874.662c-188.202 0-341.333-153.13-341.333-341.12-1.238-274.988 328.362-502.996 341.333-512.212 0 0 342.572 237.225 341.333 511.999 0 188.203-153.129 341.334-341.333 341.334zM511.987 362.665c-94.294 0-170.666 76.37-170.666 170.664s76.373 170.667 170.666 170.667c94.293 0 170.668-76.374 170.668-170.667s-76.375-170.664-170.668-170.664z" />
<glyph unicode="&#xe93a;" glyph-name="upload" d="M469.333 320h85.333v256h128l-170.667 213.333-170.667-213.333h128v-256zM853.333 192h-682.667v298.667h-85.333v-298.667c0-47.061 38.272-85.333 85.333-85.333h682.667c47.061 0 85.333 38.272 85.333 85.333v298.667h-85.333v-298.667z" />
<glyph unicode="&#xe93b;" glyph-name="home-heart" d="M127.992 362.668h85.334v-298.668c0-23.592 19.114-42.664 42.666-42.664h512c23.596 0 42.668 19.072 42.668 42.664v298.668h85.332c16.852 0 32.128 9.9 38.956 25.3 6.868 15.404 4.052 33.408-7.256 45.912l-384 426.665c-16.168 18.005-47.232 18.005-63.4 0l-384.001-426.665c-11.264-12.504-14.123-30.508-7.253-45.912 6.826-15.4 22.101-25.3 38.954-25.3zM369.189 463.32c37.332 36.48 96.212 36.48 133.332 0l9.556-9.388 9.516 9.388c37.164 36.48 96.044 36.48 133.376 0 37.164-36.696 37.164-94.508 0-130.988l-142.892-140.332-142.888 140.332c-37.164 36.48-37.164 94.292 0 130.988z" />
<glyph unicode="&#xe93c;" glyph-name="plus-circle" d="M512.005 874.669c-235.264 0-426.668-191.402-426.668-426.666s191.404-426.668 426.668-426.668c235.264 0 426.665 191.404 426.665 426.668s-191.401 426.666-426.665 426.666zM725.338 405.335h-170.668v-170.668h-85.332v170.668h-170.668v85.332h170.668v170.668h85.332v-170.668h170.668v-85.332z" />
<glyph unicode="&#xe93d;" glyph-name="letter" d="M853.325 789.338h-682.666c-47.104 0-85.334-38.23-85.334-85.334v-511.999c0-47.104 38.23-85.335 85.334-85.335h682.666c47.104 0 85.335 38.231 85.335 85.335v511.999c0 47.104-38.231 85.334-85.335 85.334zM853.325 588.804l-341.333-227.583-341.334 227.583v102.528l341.334-227.541 341.333 227.541v-102.528z" />
<glyph unicode="&#xe93e;" glyph-name="coin-stack" d="M512 533.333c169.643 0 341.333 58.624 341.333 170.667s-171.691 170.667-341.333 170.667c-169.643 0-341.333-58.624-341.333-170.667s171.691-170.667 341.333-170.667zM170.667 533.333c0-112.043 171.691-170.667 341.333-170.667s341.333 58.624 341.333 170.667v85.333c0-112.043-171.691-170.667-341.333-170.667s-341.333 58.624-341.333 170.667v-85.333zM170.667 362.667c0-112.043 171.691-170.667 341.333-170.667s341.333 58.624 341.333 170.667v85.333c0-112.043-171.691-170.667-341.333-170.667s-341.333 58.624-341.333 170.667v-85.333zM170.667 192c0-112.043 171.691-170.667 341.333-170.667s341.333 58.624 341.333 170.667v85.333c0-112.043-171.691-170.667-341.333-170.667s-341.333 58.624-341.333 170.667v-85.333z" />
<glyph unicode="&#xe93f;" glyph-name="coin" d="M512.007 746.665c-212.012 0-426.668-65.963-426.668-192.001 0-126.036 214.656-192 426.668-192 212.052 0 426.664 65.964 426.664 192 0 126.038-214.612 192.001-426.664 192.001zM298.673 322.644v-128c52.779-12.756 111.147-20.564 170.667-23.084v128c-59.52 2.56-117.888 10.368-170.667 23.084zM554.672 299.604v-128c59.52 2.516 117.932 10.324 170.668 23.084v128c-52.736-12.76-111.148-20.568-170.668-23.084zM810.672 349.992v-128c76.844 32.216 128 79.232 128 140.672v128c0-61.44-51.156-108.456-128-140.672zM213.339 221.992v128c-76.8 32.216-128 79.276-128 140.672v-128c0-61.396 51.2-108.456 128-140.672z" />
<glyph unicode="&#xe940;" glyph-name="money" d="M896.007 789.335h-768.001c-23.594 0-42.666-19.072-42.666-42.666v-597.332c0-23.596 19.072-42.668 42.666-42.668h768.001c23.592 0 42.664 19.072 42.664 42.668v597.332c0 23.594-19.072 42.666-42.664 42.666zM853.339 320c-70.7 0-128-57.3-128-128h-426.667c0 70.7-57.301 128-128 128v256c70.699 0 128 57.303 128 128.001h426.667c0-70.699 57.3-128.001 128-128.001v-256zM512.007 618.665c-94.124 0-170.668-76.545-170.668-170.665 0-94.124 76.544-170.668 170.668-170.668 94.12 0 170.664 76.544 170.664 170.668 0 94.12-76.544 170.665-170.664 170.665zM512.007 362.664c-47.064 0-85.336 38.272-85.336 85.336 0 47.060 38.272 85.332 85.336 85.332 47.060 0 85.332-38.272 85.332-85.332 0-47.064-38.272-85.336-85.332-85.336z" />
<glyph unicode="&#xe941;" glyph-name="gift" d="M213.333 448h-42.667v-341.333c0-47.104 38.229-85.333 85.333-85.333h213.333v426.667h-256zM768 448h-213.333v-426.667h213.333c47.104 0 85.333 38.229 85.333 85.333v341.333h-85.333zM801.751 661.333c5.588 17.536 8.916 38.571 8.916 64 0 82.347-66.987 149.333-149.333 149.333-69.205 0-115.415-63.232-145.237-131.627-29.399 64.64-77.95 131.627-153.429 131.627-82.347 0-149.333-66.987-149.333-149.333 0-25.429 3.371-46.464 8.917-64h-136.917v-170.667h384v85.333h85.333v-85.333h384v170.667h-136.916zM298.667 725.333c0 35.285 28.715 64 64 64 37.888 0 73.131-65.067 93.781-128h-115.115c-15.957 0-42.667 0-42.667 64zM661.333 789.333c35.287 0 64-28.715 64-64 0-64-26.709-64-42.667-64h-105.687c21.76 67.243 53.378 128 84.354 128z" />
<glyph unicode="&#xe942;" glyph-name="happy" d="M512.007 874.667c-235.265 0-426.668-191.403-426.668-426.667s191.402-426.668 426.668-426.668c235.264 0 426.664 191.404 426.664 426.668s-191.4 426.667-426.664 426.667zM661.040 618.667c35.16 0 63.704-28.543 63.704-63.703 0-35.156-28.544-63.7-63.704-63.7-35.156 0-63.7 28.544-63.7 63.7 0 35.16 28.544 63.703 63.7 63.703zM362.673 618.667c35.327 0 63.999-28.671 63.999-63.999s-28.672-64-63.999-64c-35.328 0-64 28.672-64 64s28.672 63.999 64 63.999zM512.007 192c-213.335 0-256.001 213.332-256.001 213.332h512.001c0 0-42.668-213.332-256-213.332z" />
<glyph unicode="&#xe943;" glyph-name="trash" d="M213.458 106.668c0-47.060 38.272-85.332 85.333-85.332h426.669c47.060 0 85.332 38.272 85.332 85.332v512h85.332v85.333h-170.664v85.333c0 47.062-38.272 85.334-85.336 85.334h-256c-47.061 0-85.333-38.272-85.333-85.334v-85.333h-170.666v-85.333h85.333v-512zM384.124 789.334h256v-85.333h-256v85.333zM341.458 618.668h384.002l0.040-512h-426.709v512h42.667zM384.124 533.332h85.336v-341.332h-85.336v341.332zM554.792 533.332h85.332v-341.332h-85.332v341.332z" />
<glyph unicode="&#xe944;" glyph-name="image" d="M319.964 490.668c35.346 0 63.999 28.654 63.999 64s-28.653 64-63.999 64c-35.346 0-64-28.653-64-64s28.654-64 64-64zM447.963 362.664l-64 85.336-127.999-170.668h511.999l-192 256-128-170.668zM853.285 789.332h-682.666c-47.061 0-85.333-38.272-85.333-85.333v-511.999c0-47.064 38.272-85.336 85.333-85.336h682.666c47.064 0 85.336 38.272 85.336 85.336v511.999c0 47.061-38.272 85.333-85.336 85.333zM170.619 192v511.999h682.666l0.088-511.999h-682.753z" />
<glyph unicode="&#xe945;" glyph-name="calendar-plus" d="M341.335 320h128.001v-128h85.332v128h128v85.332h-128v128h-85.332v-128h-128.001v-85.332zM810.668 789.334h-85.336v85.333h-85.332v-85.333h-256v85.333h-85.333v-85.333h-85.334c-47.061 0-85.333-38.272-85.333-85.334v-597.332c0-47.064 38.272-85.336 85.333-85.336h597.335c47.060 0 85.332 38.272 85.332 85.336v597.332c0 47.062-38.272 85.334-85.332 85.334zM810.752 106.668h-597.419v511.999h597.335l0.084-511.999z" />
<glyph unicode="&#xe946;" glyph-name="shop-active" d="M868.262 372.552l52.363 288.001c1.678 9.223 1.307 18.701-1.084 27.765s-6.743 17.492-12.749 24.689c-6.005 7.197-13.52 12.986-22.010 16.959s-17.751 6.033-27.124 6.033h-670.95l-19.535 107.447c-2.675 14.75-10.445 28.091-21.953 37.696s-26.025 14.863-41.015 14.856h-72.203c-8.487 0-16.626-3.371-22.627-9.373s-9.373-14.141-9.373-22.627c0-8.487 3.371-16.626 9.373-22.627s14.14-9.373 22.627-9.373h72.203l106.809-587.448c0.955-5.195 2.55-10.255 4.748-15.059-15.977-13.499-27.854-31.205-34.285-51.11-6.43-19.902-7.157-41.21-2.097-61.506s15.702-38.767 30.723-53.326c15.021-14.556 33.818-24.615 54.263-29.033 20.444-4.421 41.719-3.027 61.41 4.024 19.694 7.054 37.018 19.48 50.010 35.873 12.99 16.393 21.131 36.096 23.498 56.877 2.367 20.784-1.135 41.815-10.11 60.708h277.658c-10.4-21.926-13.393-46.634-8.535-70.409s17.309-45.327 35.473-61.416c18.167-16.086 41.068-25.838 65.256-27.787s48.351 4.012 68.858 16.983c20.507 12.972 36.247 32.256 44.848 54.947 8.602 22.688 9.602 47.559 2.846 70.867-6.755 23.305-20.896 43.788-40.297 58.362-19.402 14.577-43.011 22.456-67.277 22.453h-494.019l-11.637 64h542.948c14.993-0.006 29.506 5.253 41.017 14.857 11.508 9.605 19.278 22.944 21.953 37.695z" />
<glyph unicode="&#xe947;" glyph-name="community-active" d="M484.78 328.21c42.936 28.521 75.55 70.105 93.012 118.6 17.465 48.495 18.851 101.325 3.954 150.67-14.893 49.345-45.279 92.585-86.661 123.318-41.379 30.733-91.555 47.327-143.098 47.327-51.545 0-101.719-16.595-143.099-47.327s-71.766-73.973-86.661-123.318c-14.895-49.345-13.509-102.174 3.955-150.67s50.077-90.079 93.012-118.6c-73.192-27-136.45-75.604-181.39-139.372-3.374-4.795-5.367-10.421-5.761-16.27-0.394-5.846 0.825-11.692 3.525-16.893s6.776-9.562 11.786-12.607c5.009-3.045 10.757-4.653 16.619-4.653l576.019 0.021c5.861 0 11.607 1.611 16.616 4.656 5.012 3.042 9.086 7.403 11.785 12.607 2.702 5.201 3.918 11.047 3.524 16.893-0.395 5.849-2.388 11.475-5.765 16.27-44.939 63.756-108.189 112.351-181.371 139.348v0zM992.25 188.859c-44.939 63.759-108.192 112.354-181.374 139.351 47.583 31.675 82.296 79.288 97.897 134.277s11.065 113.742-12.791 165.683c-23.859 51.943-65.47 93.666-117.35 117.66-51.878 23.994-110.619 28.685-165.647 13.229-4.997-1.405-9.577-4.004-13.345-7.573s-6.611-8-8.282-12.913c-1.675-4.912-2.126-10.158-1.322-15.285s2.846-9.981 5.945-14.143c36.174-48.592 56.968-106.903 59.708-167.418 2.738-60.515-12.707-120.468-44.345-172.125-4.177-6.816-5.656-14.944-4.141-22.79 1.512-7.849 5.909-14.845 12.321-19.616 12.131-9.029 23.805-18.661 34.973-28.859 0.578-0.626 1.16-1.25 1.795-1.84 42.713-39.484 77.327-86.907 101.918-139.622 2.575-5.518 6.671-10.183 11.809-13.454 5.135-3.271 11.098-5.009 17.188-5.006l178.884 0.021c5.861 0 11.607 1.611 16.616 4.656s9.083 7.406 11.782 12.607c2.702 5.201 3.918 11.047 3.524 16.893-0.395 5.849-2.388 11.475-5.762 16.267v0z" />
<glyph unicode="&#xe948;" glyph-name="home-active" d="M959.913 128.009h-64v369.845c-0.009 8.915-1.876 17.73-5.484 25.883-3.605 8.153-8.873 15.465-15.462 21.471l-320.027 290.941c-11.755 10.764-27.115 16.735-43.053 16.734s-31.298-5.972-43.053-16.738l-319.975-290.937c-6.591-6.002-11.858-13.315-15.464-21.471-3.606-8.153-5.473-16.968-5.481-25.883v-369.845h-64c-8.487 0-16.626-3.373-22.627-9.373-6.001-6.002-9.373-14.14-9.373-22.627s3.371-16.628 9.373-22.627c6.001-6.002 14.141-9.373 22.627-9.373h896.001c8.487 0 16.625 3.37 22.627 9.373 5.999 5.999 9.373 14.14 9.373 22.627s-3.373 16.625-9.373 22.627c-6.002 5.999-14.14 9.373-22.627 9.373zM415.982 384.009h192v-256h-192v256z" />
<glyph unicode="&#xe949;" glyph-name="wiki-active" d="M832 832h-640c-16.968-0.019-33.235-6.768-45.233-18.767s-18.747-28.265-18.767-45.233v-640c0.019-16.968 6.768-33.235 18.767-45.234s28.265-18.748 45.233-18.766h640c16.968 0.018 33.235 6.767 45.234 18.766s18.748 28.265 18.766 45.234v640c-0.018 16.968-6.767 33.235-18.766 45.233s-28.265 18.747-45.234 18.767zM320 128h-128v640h128v-640zM704 352h-256c-8.487 0-16.625 3.37-22.627 9.373s-9.373 14.14-9.373 22.627c0 8.487 3.37 16.625 9.373 22.627s14.14 9.373 22.627 9.373h256c8.487 0 16.625-3.37 22.627-9.373s9.373-14.14 9.373-22.627c0-8.487-3.37-16.625-9.373-22.627s-14.14-9.373-22.627-9.373zM704 480h-256c-8.487 0-16.625 3.37-22.627 9.373s-9.373 14.14-9.373 22.627c0 8.487 3.37 16.625 9.373 22.627s14.14 9.373 22.627 9.373h256c8.487 0 16.625-3.37 22.627-9.373s9.373-14.14 9.373-22.627c0-8.487-3.37-16.625-9.373-22.627s-14.14-9.373-22.627-9.373z" />
<glyph unicode="&#xe94a;" glyph-name="work-active" d="M864.030 704h-160.033v32c-0.027 25.452-10.153 49.853-28.148 67.85-17.998 17.997-42.4 28.121-67.852 28.15h-192c-25.449-0.029-49.851-10.153-67.849-28.15s-28.121-42.398-28.151-67.85v-32h-159.967c-16.968-0.019-33.235-6.768-45.233-18.767s-18.747-28.265-18.767-45.233v-512c0.019-16.968 6.768-33.235 18.767-45.234s28.265-18.748 45.233-18.766h704.001c16.968 0.018 33.235 6.767 45.234 18.766 11.996 11.999 18.745 28.265 18.766 45.234v512c-0.021 16.968-6.77 33.235-18.766 45.233-11.999 11.998-28.265 18.747-45.234 18.767v0zM383.997 640h256v-512h-256v512zM383.997 736c0.012 8.484 3.385 16.618 9.385 22.617s14.131 9.374 22.615 9.383h192c8.484-0.010 16.619-3.384 22.618-9.383s9.373-14.133 9.382-22.617v-32h-256v32z" />
<glyph unicode="&#xe94b;" glyph-name="radio-circle-marked" d="M85.333 448c0-235.217 191.451-426.667 426.667-426.667s426.667 191.45 426.667 426.667c0 235.215-191.45 426.667-426.667 426.667-235.215 0-426.667-191.451-426.667-426.667zM170.667 448c0 185.117 156.217 341.333 341.333 341.333 185.118 0 341.333-156.217 341.333-341.333 0-185.118-156.215-341.333-341.333-341.333-185.117 0-341.333 156.215-341.333 341.333zM512 661.333c-115.698 0-213.333-97.635-213.333-213.333s97.635-213.333 213.333-213.333c115.699 0 213.333 97.634 213.333 213.333s-97.634 213.333-213.333 213.333z" />
<glyph unicode="&#xe94c;" glyph-name="heart-square" d="M170.667 64h682.667c23.593 0 42.667 19.115 42.667 42.667v682.667c0 23.552-19.074 42.667-42.667 42.667h-682.667c-23.595 0-42.667-19.115-42.667-42.667v-682.667c0-23.552 19.072-42.667 42.667-42.667zM333.312 579.97c46.677 46.42 120.276 46.42 166.7 0l11.902-11.906 11.861 11.906c46.466 46.42 120.023 46.42 166.7 0 46.462-46.677 46.462-120.235 0-166.7l-178.562-178.603-178.645 178.603c-46.379 46.421-46.379 120.023 0.043 166.7z" />
<glyph unicode="&#xe94d;" glyph-name="radio-circle" d="M85.333 448c0-235.217 191.451-426.667 426.667-426.667s426.667 191.45 426.667 426.667c0 235.215-191.45 426.667-426.667 426.667-235.215 0-426.667-191.451-426.667-426.667zM170.667 448c0 185.117 156.217 341.333 341.333 341.333 185.118 0 341.333-156.217 341.333-341.333 0-185.118-156.215-341.333-341.333-341.333-185.117 0-341.333 156.215-341.333 341.333z" />
<glyph unicode="&#xe94e;" glyph-name="fullscreen" d="M213.333 746.667h213.333v85.333h-298.667v-298.667h85.333v213.333zM426.667 149.333h-213.333v213.333h-85.333v-298.667h298.667v85.333zM896 362.667h-85.333v-213.333h-213.333v-85.333h298.667v298.667zM810.667 533.333h85.333v298.667h-298.667v-85.333h213.333v-213.333z" />
<glyph unicode="&#xe94f;" glyph-name="credit-card" d="M853.325 789.338h-682.666c-47.062 0-85.334-38.272-85.334-85.334v-511.999c0-47.063 38.272-85.335 85.334-85.335h682.666c47.063 0 85.335 38.272 85.335 85.335v511.999c0 47.062-38.272 85.334-85.335 85.334zM170.658 704.004h682.666v-85.333h-682.666v85.333zM170.658 192.005v255.999h682.707l0.046-255.999h-682.754zM256 362.665h256v-85.335h-256v85.335z" />
<glyph unicode="&#xe950;" glyph-name="wallet" d="M682.675 448h85.335v-170.665h-85.335v170.665zM853.325 661.334v85.333c0 47.062-38.272 85.334-85.335 85.334h-554.665c-70.57 0-128-57.43-128-128v-512c0-93.911 76.544-128 128-128h640c47.063 0 85.335 38.272 85.335 85.335v426.665c0 47.062-38.272 85.334-85.335 85.334zM213.325 746.666h554.665v-85.333h-554.665c-23.552 0-42.666 19.157-42.666 42.666s19.114 42.666 42.666 42.666zM853.325 149.335h-639.488c-19.712 0.512-43.178 8.32-43.178 42.665v391.894c13.398-4.822 27.606-7.894 42.666-7.894h640v-426.665z" />
<glyph unicode="&#xe951;" glyph-name="rocket" d="M892.584 858.296c-2.687 0.683-66.388 16.384-146.092 16.384-110.293 0-198.955-30.421-256.467-87.936-63.488-63.488-112.13-113.109-135.468-137.046-51.797 5.845-173.952 8.661-256.725-74.154-8.021-7.979-12.501-18.816-12.501-30.166s4.48-22.188 12.501-30.163l482.687-482.689c8.024-8.024 18.817-12.501 30.167-12.501s22.188 4.477 30.167 12.501c83.37 83.329 80.81 205.398 75.391 256.426l135.848 135.807c136.151 136.15 74.24 391.766 71.553 402.561-3.797 15.232-15.786 27.179-31.060 30.976zM791.761 485.048l-150.868-150.827c-10.068-10.068-14.463-24.535-11.649-38.527 0.213-1.069 17.367-95.658-22.868-168.28l-413.654 413.614c72.533 40.020 168.149 21.502 168.448 21.502 14.080-2.987 29.184 1.536 39.381 12.075 0.128 0.128 59.99 61.995 149.844 151.851 51.97 51.968 135.295 62.891 196.096 62.891 40.407 0 76.501-4.736 99.5-8.661 10.412-61.056 26.665-214.699-54.231-295.637zM671.064 520.372c47.129 0 85.332 38.206 85.332 85.334s-38.203 85.333-85.332 85.333c-47.129 0-85.336-38.205-85.336-85.333s38.207-85.334 85.336-85.334zM213.333 277.32c-85.333-42.668-85.333-213.332-85.333-213.332s128 0 213.333 85.332l-128 128z" />
<glyph unicode="&#xe952;" glyph-name="question-mark" d="M512.004 789.32c-117.633 0-213.334-95.701-213.334-213.333h85.333c0 70.57 57.431 128 128.001 128s128-57.429 128-128c0-45.612-19.37-62.508-63.189-96.214-16.298-12.542-34.689-26.71-52.31-44.286-55.98-55.939-55.382-111.104-55.169-115.499v-85.336h85.332v85.721c0 1.024 0.983 25.641 30.167 54.784 13.652 13.652 29.098 25.514 43.991 36.991 45.224 34.816 96.51 74.24 96.51 163.839 0 117.632-95.699 213.333-213.332 213.333zM469.336 191.988h85.332v-85.336h-85.332v85.336z" />
<glyph unicode="&#xe953;" glyph-name="more" d="M170.669 661.333c0 23.564 19.102 42.667 42.666 42.667h597.332c23.567 0 42.668-19.102 42.668-42.667v0c0-23.565-19.101-42.666-42.668-42.666h-597.332c-23.564 0-42.666 19.101-42.666 42.666v0zM170.669 448c0 23.564 19.102 42.668 42.666 42.668h597.332c23.567 0 42.668-19.104 42.668-42.668v0c0-23.564-19.101-42.668-42.668-42.668h-597.332c-23.564 0-42.666 19.104-42.666 42.668v0zM170.669 234.668c0 23.564 19.102 42.665 42.666 42.665h597.332c23.567 0 42.668-19.101 42.668-42.665v0c0-23.564-19.101-42.668-42.668-42.668h-597.332c-23.564 0-42.666 19.104-42.666 42.668v0z" />
<glyph unicode="&#xe954;" glyph-name="community" d="M352.006 705.882c-98.24 0-177.881-79.64-177.881-177.884 0-98.241 79.641-177.881 177.881-177.881 98.244 0 177.884 79.64 177.884 177.881 0 98.244-79.64 177.884-177.884 177.884zM113.89 527.998c0 131.51 106.609 238.119 238.116 238.119 131.509 0 238.119-106.609 238.119-238.119s-106.61-238.116-238.119-238.116c-131.508 0-238.116 106.607-238.116 238.116zM705.075 703.88c-25.127 3.859-50.787 2.288-75.252-4.605-16.011-4.511-32.648 4.811-37.156 20.821-4.512 16.010 4.81 32.646 20.82 37.157 32.75 9.227 67.099 11.33 100.731 6.165 33.629-5.165 65.765-17.477 94.238-36.107 28.47-18.63 52.622-43.145 70.822-71.893 18.2-28.75 30.027-61.067 34.69-94.771 4.659-33.705 2.042-68.018-7.677-100.626s-26.311-62.756-48.661-88.41c-22.35-25.657-49.941-46.225-80.908-60.323-30.97-14.095-64.599-21.39-98.626-21.393-16.634-0.003-30.118 13.481-30.121 30.115-0.003 16.631 13.481 30.118 30.115 30.121 25.419 0.003 50.543 5.451 73.68 15.983 23.133 10.529 43.746 25.895 60.443 45.062s29.091 41.689 36.352 66.048c7.261 24.362 9.216 49.995 5.734 75.174-3.482 25.181-12.318 49.324-25.913 70.801-13.598 21.477-31.639 39.791-52.911 53.708-21.269 13.918-45.276 23.116-70.4 26.974zM351.991 289.882c-51.651-0.003-102.545-12.433-148.383-36.241s-85.275-58.296-114.982-100.551c-9.566-13.607-28.352-16.881-41.96-7.316s-16.883 28.353-7.317 41.96c35.264 50.161 82.080 91.1 136.494 119.362s114.83 43.017 176.147 43.020c61.317 0.003 121.733-14.749 176.149-43.008 54.417-28.256 101.234-69.192 136.502-119.35 9.568-13.607 6.295-32.395-7.313-41.96-13.607-9.568-32.395-6.295-41.96 7.313-29.711 42.252-69.15 76.737-114.989 100.542-45.842 23.805-96.735 36.232-148.39 36.229zM826.498 253.705c-45.839 23.805-96.738 36.213-148.387 36.177-16.634-0.012-30.13 13.463-30.142 30.097s13.463 30.127 30.097 30.139c61.329 0.045 121.766-14.688 176.191-42.954 54.429-28.265 101.243-69.228 136.481-119.422 9.559-13.613 6.27-32.398-7.343-41.957-13.613-9.556-32.398-6.267-41.954 7.346-29.678 42.273-69.105 76.773-114.944 100.575z" />
<glyph unicode="&#xe955;" glyph-name="history" d="M512 618.667v-213.333h213.333v85.333h-128v128h-85.333zM908.459 597.443c-9.643 22.828-21.548 44.801-35.372 65.239-13.739 20.395-29.481 39.509-46.889 56.875s-36.437 33.067-56.832 46.848c-20.565 13.909-42.54 25.771-65.195 35.371-23.255 9.813-47.531 17.365-72.107 22.4-50.388 10.368-104.277 10.411-154.709 0-24.706-5.035-48.937-12.587-72.107-22.357-22.654-9.6-44.588-21.461-65.237-35.413-20.352-13.739-39.509-29.525-56.875-46.891s-33.152-36.523-46.891-56.832c-13.909-20.651-25.813-42.581-35.371-65.194-9.813-23.211-17.365-47.49-22.4-72.107-5.163-25.259-7.808-51.285-7.808-77.397 0-0.341 0.043-0.727 0.043-1.068h-85.376l128-169.598 128 169.598h-85.291c0 0.341-0.043 0.727-0.043 1.068 0 20.35 2.048 40.619 6.059 60.245 3.925 19.156 9.771 37.973 17.408 56.020 7.424 17.579 16.683 34.69 27.52 50.688 10.667 15.831 22.955 30.679 36.48 44.247 13.527 13.568 28.416 25.813 44.203 36.48 16.043 10.837 33.154 20.096 50.773 27.563 17.964 7.637 36.82 13.483 56.020 17.408 39.212 8.064 81.237 8.021 120.45 0 19.070-3.925 37.973-9.771 56.023-17.408 17.62-7.424 34.686-16.725 50.688-27.477 15.787-10.709 30.72-22.997 44.244-36.523 13.527-13.483 25.771-28.373 36.482-44.245 10.752-15.872 20.009-32.939 27.518-50.732 7.595-17.79 13.397-36.608 17.408-55.934 4.011-19.756 6.059-40.021 6.059-60.331s-2.048-40.578-6.059-60.16c-4.011-19.415-9.813-38.229-17.408-56.064-7.509-17.749-16.766-34.775-27.563-50.732-10.667-15.828-22.91-30.72-36.437-44.203-13.524-13.524-28.46-25.812-44.203-36.478-16.043-10.796-33.065-20.098-50.729-27.563-18.050-7.639-36.908-13.483-56.023-17.408-39.168-8.021-81.152-8.066-120.45 0-19.156 3.925-37.97 9.769-56.020 17.408-17.579 7.424-34.686 16.681-50.688 27.518-15.828 10.667-30.679 22.955-44.247 36.482l-60.329-60.331c17.365-17.408 36.48-33.154 56.832-46.892 20.608-13.909 42.58-25.812 65.193-35.369 23.211-9.813 47.49-17.367 72.11-22.402 25.214-5.161 51.241-7.806 77.353-7.806s52.18 2.645 77.353 7.806c24.62 5.035 48.899 12.544 72.11 22.357 22.699 9.602 44.67 21.504 65.321 35.458 20.309 13.739 39.383 29.481 56.747 46.848 17.367 17.364 33.109 36.478 46.848 56.788 13.865 20.48 25.771 42.455 35.413 65.239 9.728 22.955 17.278 47.189 22.398 72.192 5.164 25.259 7.81 51.285 7.81 77.312s-2.645 52.053-7.81 77.397c-5.12 24.917-12.67 49.152-22.398 72.062z" />
<glyph unicode="&#xe956;" glyph-name="vng" d="M970.807 482.216v-108.347c0-30.032-10.821-55.504-32.472-76.793s-47.938-31.934-78.479-31.934h-50.256c-30.153 0-56.441 10.646-78.091 31.934s-32.472 46.76-32.472 76.793v148.261c0 29.652 10.821 55.504 32.472 76.793s47.55 31.933 78.091 31.933h119.457v-69.189h-119.457c-10.825 0-20.487-3.8-28.222-11.403-7.731-7.603-11.984-17.108-11.984-27.754v-148.641c0-11.026 3.869-20.151 11.984-27.754 7.735-7.603 17.397-11.783 28.222-11.783h50.256c11.597 0 21.263 3.8 28.994 11.783 7.731 7.603 11.984 17.108 11.984 27.754v39.157h-89.3v69.189h159.272zM657.671 522.511v-256.987h-70.36v256.987c0 10.646-3.866 20.151-11.984 27.754-7.731 7.603-17.397 11.783-28.994 11.783h-50.256c-10.825 0-40.207 0-40.207 0s0-28.511 0-39.537v-256.987h-69.584v256.987c0 29.652 0 108.347 0 108.347s80.026 0 110.566 0h50.256c30.541 0 56.828-10.644 78.475-31.933 21.263-21.289 32.088-46.761 32.088-76.413zM344.529 630.857v-166.51c-0.387-47.521-16.624-91.238-43.685-123.173-10.438-12.544-24.355-24.711-35.953-33.075-29.767-21.288-63.788-34.213-92.782-38.777-22.422-3.419-44.844-4.18-79.251-4.18-8.505 0-19.716 0-19.716 0v365.714h70.359v-295.764c0 0 16.624-1.902 42.525 7.223 29.767 10.266 52.963 32.695 61.081 44.478 15.463 21.669 26.288 39.157 27.448 84.016v160.048h69.973z" />
<glyph unicode="&#xe957;" glyph-name="repeated" d="M512 277.333c71.296 0 128 56.789 128 128s-56.704 128-128 128c-71.296 0-128-56.789-128-128s56.704-128 128-128zM888.192 482.731c-5.12 24.875-12.672 49.109-22.4 72.021-9.6 22.699-21.504 44.629-35.413 65.323-13.824 20.437-29.568 39.509-46.848 56.704-17.237 17.323-36.395 33.109-56.832 46.976-20.608 13.909-42.581 25.771-65.195 35.371-22.955 9.771-47.189 17.28-72.149 22.443-25.6 5.248-52.011 7.765-78.421 7.68v85.419l-169.6-128 169.6-128v85.248c20.651 0.085 41.301-1.877 61.227-5.973 19.371-4.011 38.229-9.856 56.064-17.451 17.621-7.424 34.688-16.725 50.688-27.477 15.915-10.752 30.805-23.040 44.288-36.565 13.44-13.397 25.771-28.288 36.437-44.16 10.837-16.043 20.096-33.109 27.563-50.816 7.595-17.792 13.397-36.651 17.408-55.936 4.011-19.584 6.059-39.851 6.059-60.203s-2.048-40.619-6.059-60.16c-4.011-19.371-9.813-38.229-17.408-56.107-7.467-17.621-16.725-34.688-27.477-50.688-10.795-15.915-23.125-30.805-36.608-44.331-13.44-13.483-28.288-25.728-44.203-36.437-15.872-10.709-32.896-19.968-50.731-27.52-17.792-7.552-36.608-13.397-55.936-17.408-39.253-8.021-81.323-8.021-120.405 0-19.371 4.011-38.229 9.856-56.064 17.451-17.749 7.509-34.773 16.768-50.731 27.52-15.829 10.667-30.677 22.955-44.16 36.437-13.44 13.483-25.771 28.373-36.48 44.203-10.837 16.043-20.096 33.109-27.563 50.773-7.595 17.835-13.397 36.693-17.408 55.979-4.053 19.669-6.101 39.936-6.101 60.288h-85.333c0-26.069 2.645-52.096 7.808-77.397 5.12-24.832 12.672-49.067 22.4-72.064 9.6-22.699 21.504-44.629 35.456-65.323 13.781-20.352 29.525-39.424 46.805-56.704 17.323-17.365 36.437-33.152 56.789-46.891 20.437-13.867 42.411-25.771 65.237-35.413 22.955-9.771 47.189-17.28 72.149-22.443 25.259-5.12 51.285-7.765 77.355-7.765s52.096 2.645 77.397 7.808c24.875 5.163 49.109 12.672 72.021 22.4 22.912 9.685 44.885 21.589 65.28 35.413 20.395 13.739 39.509 29.525 56.789 46.891 17.28 17.28 33.024 36.395 46.933 56.832 13.867 20.608 25.771 42.581 35.371 65.195 9.771 23.040 17.28 47.275 22.4 72.192 5.163 25.173 7.808 51.2 7.808 77.269s-2.645 52.096-7.808 77.397z" />
<glyph unicode="&#xe958;" glyph-name="video" d="M768 661.333c0 47.061-38.272 85.333-85.333 85.333h-512c-47.061 0-85.333-38.272-85.333-85.333v-426.667c0-47.061 38.272-85.333 85.333-85.333h512c47.061 0 85.333 38.272 85.333 85.333v142.208l170.667-142.208v426.667l-170.667-142.208v142.208zM682.752 234.667h-512.085v426.667h512l0.043-213.291-0.043-0.043 0.043-0.043 0.043-213.291z" />
<glyph unicode="&#xe959;" glyph-name="tag" d="M499.499 862.165c-7.979 8.021-18.859 12.501-30.165 12.501h-213.333c-11.307 0-22.187-4.48-30.165-12.501l-128-128c-8.021-7.979-12.501-18.816-12.501-30.165v-213.333c0-11.349 4.48-22.187 12.501-30.165l426.667-426.667c8.32-8.32 19.243-12.501 30.165-12.501s21.845 4.181 30.165 12.501l341.333 341.333c16.683 16.683 16.683 43.648 0 60.331l-426.667 426.667zM554.667 124.331l-384 384v178.005l102.997 102.997h178.005l384-384-281.003-281.003zM356.397 533.329c38.81 0 70.274 31.464 70.274 70.274s-31.464 70.272-70.274 70.272c-38.81 0-70.272-31.462-70.272-70.272s31.462-70.274 70.272-70.274z" />
<glyph unicode="&#xe95a;" glyph-name="user-thin" d="M512 874.669c-117.632 0-213.334-95.701-213.334-213.333s95.702-213.334 213.334-213.334c117.632 0 213.335 95.702 213.335 213.334s-95.703 213.333-213.335 213.333zM512 533.336c-70.57 0-128 57.429-128 128s57.43 128 128 128c70.569 0 128-57.43 128-128s-57.431-128-128-128zM896 64v42.67c0 164.649-134.016 298.665-298.665 298.665h-170.669c-164.693 0-298.666-134.016-298.666-298.665v-42.67h85.334v42.67c0 117.632 95.701 213.33 213.333 213.33h170.669c117.632 0 213.33-95.698 213.33-213.33v-42.67h85.335z" />
<glyph unicode="&#xe95b;" glyph-name="calendar" d="M810.665 789.336h-128v85.333h-85.33v-85.333h-170.669v85.333h-85.333v-85.333h-128c-47.062 0-85.334-38.272-85.334-85.334v-597.332c0-47.063 38.272-85.335 85.334-85.335h597.331c47.063 0 85.335 38.272 85.335 85.335v597.332c0 47.062-38.272 85.334-85.335 85.334zM213.334 106.67v554.665h597.331v42.666l0.087-597.332h-597.418zM298.675 533.334v-85.334h426.665v128h-426.665v-42.666z" />
<glyph unicode="&#xe95c;" glyph-name="detail" d="M853.333 832h-682.667c-47.061 0-85.333-38.272-85.333-85.333v-597.333c0-47.061 38.272-85.333 85.333-85.333h682.667c47.061 0 85.333 38.272 85.333 85.333v597.333c0 47.061-38.272 85.333-85.333 85.333zM170.667 149.333v597.333h682.667l0.085-597.333h-682.752zM256 661.333h512v-85.333h-512v85.333zM256 490.667h512v-85.333h-512v85.333zM256 320h256v-85.333h-256v85.333z" />
<glyph unicode="&#xe95d;" glyph-name="shortcut" d="M192 772.571c-2.525 0-4.571-2.047-4.571-4.571v-640c0-2.523 2.047-4.571 4.571-4.571h640c2.523 0 4.571 2.048 4.571 4.571v640c0 2.525-2.048 4.571-4.571 4.571h-640zM132.571 768c0 32.821 26.607 59.429 59.429 59.429h640c32.823 0 59.429-26.607 59.429-59.429v-640c0-32.823-26.606-59.429-59.429-59.429h-640c-32.821 0-59.429 26.606-59.429 59.429v640zM301.714 448c0 15.148 12.28 27.429 27.429 27.429h155.429v155.429c0 15.148 12.281 27.429 27.429 27.429s27.429-12.28 27.429-27.429v-155.429h155.429c15.148 0 27.429-12.281 27.429-27.429s-12.281-27.429-27.429-27.429h-155.429v-155.429c0-15.148-12.281-27.429-27.429-27.429s-27.429 12.281-27.429 27.429v155.429h-155.429c-15.148 0-27.429 12.281-27.429 27.429z" />
<glyph unicode="&#xe95e;" glyph-name="map-thin" d="M511.991 362.667c94.123 0 170.667 76.544 170.667 170.667s-76.544 170.667-170.667 170.667c-94.124 0-170.668-76.544-170.668-170.667s76.544-170.667 170.668-170.667zM511.991 618.667c47.061 0 85.333-38.272 85.333-85.333s-38.272-85.333-85.333-85.333c-47.061 0-85.335 38.272-85.335 85.333s38.274 85.333 85.335 85.333zM487.245 29.269c7.424-5.291 16.085-7.936 24.747-7.936s17.323 2.645 24.747 7.936c12.971 9.173 317.824 229.291 316.587 504.064 0 188.203-153.131 341.333-341.333 341.333-188.201 0-341.332-153.131-341.332-341.12-1.237-274.987 303.614-495.104 316.585-504.277zM511.991 789.333c141.184 0 256-114.816 256-256.213 0.896-189.355-187.221-359.381-256-415.147-68.736 55.808-256.894 225.877-255.998 415.36 0 141.184 114.816 256 255.998 256z" />
<glyph unicode="&#xe95f;" glyph-name="like-fill" d="M512-64c282.767 0 512 229.233 512 512 0 282.77-229.233 512-512 512-282.77 0-512-229.23-512-512 0-282.767 229.23-512 512-512zM296.96 192h-30.72c-33.915 0-61.44 26.557-61.44 59.284v266.779c0 32.725 27.525 59.284 61.44 59.284h30.72v-385.348zM542.72 577.348h215.040c33.915 0 61.44-26.559 61.44-59.284v-59.284c-0.737-3.379-1.935-8.626-2.703-11.977l-120.177-254.802h-337.92v402.006l153.6 161.194h6.912c41.933 0 71.547-39.631 58.276-78.018l-34.468-99.834z" />
<glyph unicode="&#xe960;" glyph-name="upvote" d="M545.327 858.675c-16.256 20.267-50.389 20.267-66.645 0l-341.334-426.667c-10.24-12.843-12.203-30.379-5.12-45.184 7.125-14.72 22.016-24.149 38.443-24.149h170.667v-298.667c0-23.595 19.072-42.667 42.667-42.667h256.001c23.595 0 42.667 19.072 42.667 42.667v298.667h170.667c16.427 0 31.317 9.429 38.443 24.149 7.083 14.805 5.12 32.341-5.12 45.184l-341.333 426.667zM640.004 448.009h-42.667v-341.333h-170.667v341.333h-167.212l252.545 315.691 252.544-315.691h-124.544z" />
<glyph unicode="&#xe961;" glyph-name="upvote-fill" d="M170.67 362.675h170.667v-298.667c0-23.595 19.072-42.667 42.667-42.667h256.001c23.595 0 42.667 19.072 42.667 42.667v298.667h170.667c16.427 0 31.317 9.429 38.443 24.149 7.083 14.805 5.12 32.341-5.12 45.184l-341.333 426.667c-16.256 20.267-50.389 20.267-66.645 0l-341.334-426.667c-10.24-12.843-12.203-30.379-5.12-45.184 7.125-14.72 22.016-24.149 38.443-24.149z" />
<glyph unicode="&#xe962;" glyph-name="check-circle-fill" d="M512 874.667c-235.264 0-426.667-191.403-426.667-426.667s191.403-426.667 426.667-426.667c235.264 0 426.667 191.403 426.667 426.667s-191.403 426.667-426.667 426.667zM426.709 259.712l-158.421 158.080 60.245 60.416 98.091-97.92 225.877 225.877 60.331-60.331-286.123-286.123z" />
<glyph unicode="&#xe963;" glyph-name="x-circle-fill" d="M512 874.667c-235.264 0-426.667-191.403-426.667-426.667s191.403-426.667 426.667-426.667c235.264 0 426.667 191.403 426.667 426.667s-191.403 426.667-426.667 426.667zM691.499 328.832l-60.331-60.331-119.168 119.168-119.168-119.168-60.331 60.331 119.168 119.168-119.168 119.168 60.331 60.331 119.168-119.168 119.168 119.168 60.331-60.331-119.168-119.168 119.168-119.168z" />
<glyph unicode="&#xe964;" glyph-name="user-plus" d="M810.667 618.667h-85.333v-128h-128v-85.333h128v-128h85.333v128h128v85.333h-128v128zM170.667 618.667c0-97.28 73.387-170.667 170.667-170.667s170.667 73.387 170.667 170.667c0 97.28-73.387 170.667-170.667 170.667s-170.667-73.387-170.667-170.667zM426.667 618.667c0-50.261-35.072-85.333-85.333-85.333s-85.333 35.072-85.333 85.333c0 50.261 35.072 85.333 85.333 85.333s85.333-35.072 85.333-85.333zM170.667 192c0 70.571 57.429 128 128 128h85.333c70.571 0 128-57.429 128-128v-42.667h85.333v42.667c0 117.632-95.701 213.333-213.333 213.333h-85.333c-117.632 0-213.333-95.701-213.333-213.333v-42.667h85.333v42.667z" />
<glyph unicode="&#xe965;" glyph-name="like" d="M170.667 64h42.667v554.667h-42.667c-47.104 0-85.333-38.229-85.333-85.333v-384c0-47.104 38.229-85.333 85.333-85.333zM853.333 618.667h-298.667l47.872 143.701c18.432 55.253-22.699 112.299-80.939 112.299h-9.6l-213.333-232.021v-578.645h469.333l166.912 366.763c1.067 4.821 2.731 12.373 3.755 17.237v85.333c0 47.104-38.229 85.333-85.333 85.333z" />
<glyph unicode="&#xe966;" glyph-name="shield" d="M874.496 699.478l-340.18 170.666c-11.992 6.102-26.156 6.059-38.188 0.086l-342.485-170.667c-12.672-6.4-21.419-18.645-23.211-32.725-0.554-4.139-48.853-415.617 364.416-640.342 6.316-3.456 13.356-5.164 20.352-5.164 7.252 0 14.508 1.836 20.992 5.548 397.1 224.384 363.264 621.782 361.644 638.592-1.408 14.55-10.2 27.392-23.34 34.006z" />
<glyph unicode="&#xe967;" glyph-name="guideline" d="M128 874.666h85.333v-853.334h-85.333v853.334zM810.668 874.666h-554.668v-853.334h554.668c47.060 0 85.332 38.272 85.332 85.336v682.665c0 47.062-38.272 85.334-85.332 85.334zM768 448h-384v85.332h384v-85.332zM768 618.666h-384v85.333h384v-85.333z" />
<glyph unicode="&#xe968;" glyph-name="map-alt" d="M384 666.368l-298.665 149.333v-564.737l298.665-149.332 256 128 298.668-149.332v564.734l-298.668 149.334-256-128zM640 320l-256-128v384l256 128v-384z" />
<glyph unicode="&#xe969;" glyph-name="contact" d="M896 874.666h-639.999c-47.104 0-85.333-38.23-85.333-85.334v-128h-85.334v-85.333h85.334v-85.332h-85.334v-85.336h85.334v-85.332h-85.334v-85.332h85.334v-128c0-47.104 38.229-85.336 85.333-85.336h639.999c23.596 0 42.668 19.072 42.668 42.668v768c0 23.595-19.072 42.667-42.668 42.667zM554.668 746.709c70.316 0 128-57.642 128-128 0-70.313-57.684-128.041-128-128.041-70.272 0-128 57.728-128 128.041 0 70.358 57.728 128 128 128zM810.668 192h-512v32c0 94.676 115.412 192 256 192s256-97.324 256-192v-32z" />
<glyph unicode="&#xe96a;" glyph-name="hot" d="M705.836 617.471c-0.984-64.127-22.316-150.955-122.328-184.619 31.32 74.496 36.096 145.792 13.912 212.438-29.656 89.472-128.6 159.36-194.432 197.419-22.488 13.056-51.329-3.157-50.903-29.141 0.854-47.446-13.568-116.779-83.584-186.795-93.269-93.185-140.501-189.481-140.501-286.165 0-121.388 85.333-276.608 256-276.608-172.416 172.416-42.667 319.276-42.667 319.276 36.095-252.332 212.823-319.276 298.667-319.276 73.004 0 213.332 53.332 213.332 275.116 0 133.672-56.832 235.136-101.76 294.355-14.804 19.542-45.396 8.448-45.736-16z" />
<glyph unicode="&#xe96b;" glyph-name="warning-popup" d="M512 595.2c10.604 0 19.2-8.596 19.2-19.2v-192c0-10.604-8.596-19.2-19.2-19.2s-19.2 8.596-19.2 19.2v192c0 10.604 8.596 19.2 19.2 19.2zM470.441 840.076c12.639 7.288 26.97 11.124 41.559 11.124s28.923-3.836 41.562-11.124c12.639-7.288 23.137-17.77 30.446-30.397l351.905-607.969c7.319-12.646 11.18-26.998 11.192-41.61s-3.825-28.972-11.123-41.631c-7.299-12.657-17.805-23.171-30.456-30.479-12.654-7.311-27.008-11.159-41.62-11.159h-703.81c-14.612 0-28.967 3.848-41.62 11.159-12.653 7.309-23.157 17.823-30.456 30.482-7.299 12.657-11.136 27.016-11.124 41.628s3.873 28.964 11.193 41.61l351.904 607.969c7.309 12.627 17.81 23.109 30.449 30.397zM512 812.8c-7.854 0-15.572-2.066-22.377-5.99-6.807-3.924-12.46-9.569-16.397-16.368l-351.904-607.969c-3.942-6.81-6.020-14.538-6.027-22.405-0.006-7.869 2.060-15.601 5.99-22.418 3.93-6.815 9.587-12.477 16.4-16.412 6.813-3.937 14.543-6.008 22.411-6.008h703.81c7.869 0 15.598 2.071 22.41 6.008 6.815 3.935 12.47 9.597 16.399 16.412 3.932 6.817 5.998 14.548 5.99 22.415-0.005 7.869-2.084 15.598-6.026 22.408l-351.905 607.969c-3.935 6.799-9.59 12.443-16.394 16.368-6.807 3.924-14.523 5.99-22.38 5.99zM512 200c22.090 0 40 17.91 40 40s-17.91 40-40 40c-22.090 0-40-17.91-40-40s17.91-40 40-40z" />
<glyph unicode="&#xe96c;" glyph-name="delegate" d="M810.667 661.333c0 23.595-19.072 42.667-42.667 42.667h-341.333v-85.333h298.667v-213.333h-128l169.344-213.333 171.989 213.333h-128v256zM213.333 234.667c0-23.595 19.072-42.667 42.667-42.667h341.333v85.333h-298.667v213.333h128l-170.667 213.333-170.667-213.333h128v-256z" />
<glyph unicode="&#xe96d;" glyph-name="caret-right" d="M384 149.333l341.333 298.667-341.333 298.667v-597.333z" />
<glyph unicode="&#xe96e;" glyph-name="dollar-circle" d="M512 874.667c-235.264 0-426.667-191.403-426.667-426.667s191.403-426.667 426.667-426.667c235.264 0 426.667 191.403 426.667 426.667s-191.403 426.667-426.667 426.667zM512 106.667c-188.203 0-341.333 153.131-341.333 341.333s153.131 341.333 341.333 341.333c188.203 0 341.333-153.131 341.333-341.333s-153.131-341.333-341.333-341.333zM512 490.667c-85.333 0-85.333 26.709-85.333 42.667 0 20.651 29.909 42.667 85.333 42.667 50.56 0 59.136-27.221 59.733-43.435l42.667 0.768h42.667c0 43.776-28.416 105.344-102.4 122.837v47.317h-85.333v-45.781c-84.096-14.123-128-69.419-128-124.373 0-47.787 22.187-128 170.667-128 85.333 0 85.333-28.843 85.333-42.667 0-17.707-26.453-42.667-85.333-42.667-78.549 0-84.864 36.565-85.333 42.667h-85.333c0-39.168 28.203-108.928 128-124.587v-46.080h85.333v46.293c84.096 14.123 128 69.419 128 124.373 0 47.787-22.187 128-170.667 128z" />
<glyph unicode="&#xe96f;" glyph-name="cake-thin" d="M810.67 746.669h-256v128h-85.332v-128h-256c-70.571 0-128-57.429-128-128v-426.669c0-47.058 38.272-85.33 85.333-85.33h682.664c47.063 0 85.335 38.272 85.335 85.33v426.669c0 70.571-57.431 128-128 128zM213.338 661.336h597.332c23.552 0 42.665-19.115 42.665-42.667l0.046-133.119c-38.231-9.728-62.679-31.318-81.751-48.301-21.632-19.2-35.927-31.913-67.753-31.913-31.79 0-46.080 12.713-67.712 31.872-25.39 22.571-60.119 53.462-124.374 53.462-64.214 0-98.944-30.89-124.331-53.462-21.632-19.2-35.882-31.872-67.67-31.872-31.701 0-45.952 12.672-67.498 31.872-19.072 16.982-43.434 38.614-81.622 48.342v133.119c0 23.552 19.115 42.667 42.667 42.667zM170.671 192v201.134c8.15-5.248 15.958-11.694 24.875-19.671 25.386-22.569 60.074-53.463 124.245-53.463 64.214 0 98.945 30.894 124.331 53.463 21.632 19.2 35.882 31.872 67.67 31.872 31.784 0 46.079-12.713 67.711-31.872 25.385-22.569 60.119-53.463 124.375-53.463s99.026 30.894 124.416 53.463c9.001 8.023 16.85 14.505 25.088 19.799l0.041-201.262h-682.751z" />
<glyph unicode="&#xe970;" glyph-name="cancel" d="M853.333 874.667h-682.667c-47.061 0-85.333-38.272-85.333-85.333v-512c0-47.061 38.272-85.333 85.333-85.333h128v-160.725l267.819 160.725h286.848c47.061 0 85.333 38.272 85.333 85.333v512c0 47.061-38.272 85.333-85.333 85.333zM853.333 277.333h-310.485l-158.848-95.275v95.275h-213.333v512h682.667v-512zM414.164 375.168l97.836 97.835 97.835-97.835 60.331 60.331-97.835 97.836 97.835 97.835-60.331 60.331-97.835-97.835-97.836 97.835-60.331-60.331 97.836-97.835-97.836-97.836 60.331-60.331z" />
<glyph unicode="&#xe971;" glyph-name="remind" d="M853.333 874.667h-682.667c-47.061 0-85.333-38.272-85.333-85.333v-512c0-47.061 38.272-85.333 85.333-85.333h128v-160.725l267.819 160.725h286.848c47.061 0 85.333 38.272 85.333 85.333v512c0 47.061-38.272 85.333-85.333 85.333zM853.333 277.333h-310.485l-158.848-95.275v95.275h-213.333v512h682.667v-512zM469.333 704h85.333v-213.333h-85.333v213.333zM469.333 448h85.333v-85.333h-85.333v85.333z" />
<glyph unicode="&#xe972;" glyph-name="badge-check" d="M851.832 596.436c0.98 7.424 1.492 14.848 1.492 22.228 0 101.505-91.436 182.955-192.896 169.174-29.568 52.608-85.888 86.827-148.436 86.827-62.551 0-118.871-34.219-148.439-86.827-101.673 13.781-192.895-67.669-192.895-169.174 0-7.38 0.512-14.804 1.493-22.228-52.608-29.612-86.826-85.932-86.826-148.436 0-62.508 34.218-118.828 86.826-148.439-0.981-7.424-1.493-14.848-1.493-22.228 0-101.504 91.222-182.74 192.895-169.172 29.568-52.608 85.888-86.828 148.439-86.828 62.548 0 118.868 34.22 148.436 86.828 101.46-13.568 192.896 67.668 192.896 169.172 0 7.38-0.512 14.804-1.492 22.228 52.608 29.612 86.825 85.932 86.825 148.439 0 62.505-34.217 118.825-86.825 148.436zM467.405 259.584l-156.46 158.464 60.759 59.904 96.297-97.536 184.62 183.209 60.076-60.585-245.292-243.456z" />
<glyph unicode="&#xe973;" glyph-name="archive-in" d="M926.123 734.208l-127.957 127.957c-7.979 8.021-18.816 12.501-30.165 12.501h-512c-11.349 0-22.187-4.48-30.165-12.501l-127.957-127.957c-7.765-7.723-12.544-18.389-12.544-30.208v-554.667c0-47.061 38.272-85.333 85.333-85.333h682.667c47.061 0 85.333 38.272 85.333 85.333v554.667c0 11.819-4.779 22.485-12.544 30.208zM273.664 789.333h476.672l42.667-42.667h-562.005l42.667 42.667zM170.667 149.333v512h682.667l0.085-512h-682.752zM597.333 576h-170.667v-128h-128l213.333-213.333 213.333 213.333h-128v128z" />
<glyph unicode="&#xe974;" glyph-name="exit-fullscreen" d="M426.667 789.333h-85.333v-170.667h-170.667v-85.333h256v256zM341.333 106.667h85.333v256h-256v-85.333h170.667v-170.667zM853.333 362.667h-256v-256h85.333v170.667h170.667v85.333zM853.333 618.667h-170.667v170.667h-85.333v-256h256v85.333z" />
<glyph unicode="&#xe975;" glyph-name="caret-right1" d="M384 149.335l341.335 298.667-341.335 298.666v-597.334z" />
<glyph unicode="&#xe976;" glyph-name="caret-up" d="M810.665 320l-298.667 341.335-298.666-341.335h597.334z" />
<glyph unicode="&#xe977;" glyph-name="caret-left" d="M640 746.664l-341.334-298.664 341.334-298.67v597.335z" />
<glyph unicode="&#xe978;" glyph-name="learning" d="M497.315 835.571c9.255 5.28 20.61 5.277 29.862-0.007l421.409-240.701c9.382-5.358 15.173-15.333 15.179-26.139s-5.78-20.784-15.158-26.151l-421.409-241.182c-9.261-5.301-20.64-5.304-29.907-0.009l-421.885 241.182c-9.385 5.367-15.175 15.351-15.17 26.16 0.005 10.812 5.803 20.79 15.193 26.148l421.886 240.7zM151.083 568.684l361.146-206.459 360.74 206.459-360.74 206.048-361.146-206.048zM210.824 523.294c16.633 0 30.118-13.484 30.118-30.118v-216.787l271.279-155.103 270.839 155.088v216.802c0 16.634 13.484 30.118 30.118 30.118s30.118-13.484 30.118-30.118v-234.261c0-10.8-5.78-20.769-15.152-26.136l-300.945-172.327c-9.264-5.307-20.646-5.31-29.916-0.009l-301.407 172.327c-9.38 5.361-15.169 15.339-15.169 26.145v234.261c0 16.634 13.484 30.118 30.118 30.118zM933.647 598.588c16.634 0 30.118-13.484 30.118-30.118v-240.941c0-16.634-13.484-30.118-30.118-30.118s-30.118 13.484-30.118 30.118v240.941c0 16.634 13.484 30.118 30.118 30.118zM512 342.588c16.634 0 30.118-13.484 30.118-30.118v-225.882c0-16.634-13.484-30.118-30.118-30.118s-30.118 13.484-30.118 30.118v225.882c0 16.634 13.484 30.118 30.118 30.118z" />
<glyph unicode="&#xe979;" glyph-name="shop" d="M1.882 864c0 16.633 13.484 30.118 30.118 30.118h72.203c14.547 0 28.633-5.106 39.802-14.427s18.712-22.267 21.314-36.579l106.809-587.449c0.079-0.434 0.308-0.825 0.646-1.108s0.765-0.437 1.206-0.437h494.021c16.634 0 30.118-13.484 30.118-30.118s-13.484-30.118-30.118-30.118h-494.021c-14.547 0-28.633 5.105-39.802 14.426s-18.712 22.266-21.314 36.581l-106.809 587.447c-0.079 0.434-0.308 0.826-0.646 1.108s-0.765 0.437-1.206 0.437h-72.203c-16.634 0-30.118 13.484-30.118 30.118zM288 193.882c-27.549 0-49.882-22.332-49.882-49.884 0-27.549 22.333-49.881 49.882-49.881s49.884 22.332 49.884 49.881c0 27.552-22.335 49.884-49.884 49.884zM177.882 143.998c0 60.817 49.301 110.119 110.118 110.119s110.119-49.303 110.119-110.119c0-60.814-49.303-110.116-110.119-110.116s-110.118 49.303-110.118 110.116zM768 193.882c-27.549 0-49.881-22.332-49.881-49.884 0-27.549 22.332-49.881 49.881-49.881s49.881 22.332 49.881 49.881c0 27.552-22.332 49.884-49.881 49.884zM657.884 143.998c0 60.817 49.3 110.119 110.116 110.119s110.116-49.303 110.116-110.119c0-60.814-49.3-110.116-110.116-110.116s-110.116 49.303-110.116 110.116zM129.882 704c0 16.633 13.484 30.118 30.118 30.118h697.657c9.099 0 18.086-1.999 26.326-5.855 8.243-3.856 15.535-9.476 21.365-16.461s10.053-15.166 12.372-23.964c2.322-8.798 2.68-17.998 1.051-26.95l-52.363-287.998c-2.602-14.315-10.147-27.259-21.314-36.581s-25.254-14.426-39.8-14.426h-581.295c-16.633 0-30.118 13.484-30.118 30.118s13.484 30.118 30.118 30.118h581.295c0.44 0 0.867 0.154 1.205 0.437 0.34 0.283 0.566 0.675 0.648 1.108l52.363 288.001c0.048 0.271 0.039 0.55-0.033 0.816-0.069 0.267-0.196 0.515-0.373 0.726s-0.398 0.382-0.648 0.499c-0.25 0.117-0.521 0.177-0.798 0.177h-697.657c-16.633 0-30.118 13.484-30.118 30.118z" />
<glyph unicode="&#xe97a;" glyph-name="work" d="M160.030 641.882c-1.040 0-1.882-0.843-1.882-1.882v-512c0-1.039 0.843-1.882 1.882-1.882h704.001c1.039 0 1.882 0.843 1.882 1.882v512c0 1.039-0.843 1.882-1.882 1.882h-704.001zM97.912 640c0 34.307 27.811 62.118 62.118 62.118h704.001c34.307 0 62.118-27.811 62.118-62.118v-512c0-34.307-27.811-62.118-62.118-62.118h-704.001c-34.307 0-62.118 27.811-62.118 62.118v512zM349.449 802.551c17.649 17.65 41.589 27.566 66.551 27.566h192c24.962 0 48.902-9.916 66.551-27.566 17.652-17.65 27.567-41.59 27.567-66.551v-640c0-16.634-13.484-30.118-30.118-30.118s-30.118 13.484-30.118 30.118v640c0 8.986-3.569 17.604-9.924 23.959s-14.971 9.924-23.959 9.924h-192c-8.987 0-17.604-3.57-23.959-9.924s-9.924-14.972-9.924-23.959v-640c0-16.634-13.484-30.118-30.118-30.118s-30.118 13.484-30.118 30.118v640c0 24.962 9.915 48.901 27.567 66.551z" />
<glyph unicode="&#xe97b;" glyph-name="wiki" d="M417.882 512c0 16.634 13.484 30.118 30.118 30.118h256c16.634 0 30.118-13.484 30.118-30.118s-13.484-30.118-30.118-30.118h-256c-16.634 0-30.118 13.484-30.118 30.118zM417.882 384c0 16.634 13.484 30.118 30.118 30.118h256c16.634 0 30.118-13.484 30.118-30.118s-13.484-30.118-30.118-30.118h-256c-16.634 0-30.118 13.484-30.118 30.118zM192 769.882c-1.040 0-1.882-0.843-1.882-1.882v-640c0-1.039 0.843-1.882 1.882-1.882h640c1.039 0 1.882 0.843 1.882 1.882v640c0 1.040-0.843 1.882-1.882 1.882h-640zM129.882 768c0 34.307 27.811 62.118 62.118 62.118h640c34.307 0 62.118-27.811 62.118-62.118v-640c0-34.307-27.811-62.118-62.118-62.118h-640c-34.307 0-62.118 27.811-62.118 62.118v640zM320 830.118c16.634 0 30.118-13.484 30.118-30.118v-704c0-16.634-13.484-30.118-30.118-30.118s-30.118 13.484-30.118 30.118v704c0 16.633 13.484 30.118 30.118 30.118z" />
<glyph unicode="&#xe97c;" glyph-name="wrong-popup" d="M512 812.8c-201.475 0-364.8-163.325-364.8-364.8s163.325-364.8 364.8-364.8c201.475 0 364.8 163.325 364.8 364.8s-163.325 364.8-364.8 364.8zM108.8 448c0 222.682 180.518 403.2 403.2 403.2s403.2-180.518 403.2-403.2c0-222.682-180.518-403.2-403.2-403.2s-403.2 180.518-403.2 403.2zM653.576 589.576c7.498-7.498 7.498-19.653 0-27.151l-256-256c-7.498-7.498-19.653-7.498-27.151 0s-7.498 19.653 0 27.151l256 256c7.498 7.498 19.653 7.498 27.151 0zM370.424 589.576c7.498 7.498 19.653 7.498 27.151 0l256-256c7.498-7.498 7.498-19.653 0-27.151s-19.653-7.498-27.151 0l-256 256c-7.498 7.498-7.498 19.653 0 27.151z" />
<glyph unicode="&#xe97d;" glyph-name="success-popup" d="M701.888 557.258c7.322-7.672 7.040-19.825-0.63-27.146l-234.67-224c-7.419-7.084-19.095-7.084-26.514 0l-117.332 112c-7.67 7.322-7.951 19.474-0.63 27.146 7.322 7.67 19.474 7.951 27.146 0.63l104.074-99.346 221.409 211.346c7.672 7.322 19.825 7.040 27.146-0.63zM512 812.8c-201.475 0-364.8-163.325-364.8-364.8s163.325-364.8 364.8-364.8c201.475 0 364.8 163.325 364.8 364.8s-163.325 364.8-364.8 364.8zM108.8 448c0 222.682 180.518 403.2 403.2 403.2s403.2-180.518 403.2-403.2c0-222.682-180.518-403.2-403.2-403.2s-403.2 180.518-403.2 403.2z" />
<glyph unicode="&#xe97e;" glyph-name="info-popup" d="M512.003 812.8c-201.472 0-364.799-163.325-364.799-364.8s163.327-364.8 364.799-364.8c201.475 0 364.8 163.325 364.8 364.8s-163.325 364.8-364.8 364.8zM108.803 448c0 222.682 180.518 403.2 403.199 403.2s403.2-180.518 403.2-403.2c0-222.682-180.518-403.2-403.2-403.2s-403.199 180.518-403.199 403.2zM460.8 480c0 10.604 8.596 19.2 19.2 19.2h32.005c5.092 0 9.974-2.022 13.576-5.624 3.599-3.599 5.624-8.484 5.624-13.576l-0.005-204.8h12.8c10.604 0 19.2-8.596 19.2-19.2s-8.596-19.2-19.2-19.2h-32c-5.092 0-9.976 2.022-13.576 5.624-3.602 3.599-5.624 8.484-5.624 13.576l0.003 204.8h-12.803c-10.604 0-19.2 8.596-19.2 19.2zM512 584c22.090 0 40 17.91 40 40s-17.91 40-40 40c-22.090 0-40-17.91-40-40s17.91-40 40-40z" />
<glyph unicode="&#xe97f;" glyph-name="like-thin" d="M853.333 618.667h-239.445l47.915 143.659c8.619 25.941 4.267 54.699-11.733 76.885s-41.941 35.456-69.291 35.456h-68.779c-12.672 0-24.661-5.632-32.811-15.36l-200.533-240.64h-107.989c-47.061 0-85.333-38.272-85.333-85.333v-384c0-47.061 38.272-85.333 85.333-85.333h567.765c35.371 0 67.456 22.229 79.915 55.381l117.632 313.643c1.792 4.779 2.688 9.856 2.688 14.976v85.333c0 47.061-38.272 85.333-85.333 85.333zM170.667 533.333h85.333v-384h-85.333v384zM853.333 455.723l-114.901-306.389h-397.099v411.221l190.635 228.779h48.896l-66.645-199.808c-4.395-13.013-2.176-27.307 5.845-38.443 8.021-11.179 20.907-17.749 34.603-17.749h298.667v-77.611z" />
<glyph unicode="&#xe980;" glyph-name="news" d="M853.321 234.668c0-23.552-19.116-42.668-42.668-42.668s-42.664 19.116-42.664 42.668v512c0 23.594-19.072 42.666-42.668 42.666h-597.333c-23.594 0-42.666-19.072-42.666-42.666v-554.668c0-47.104 38.229-85.332 85.333-85.332h639.999c70.572 0 128 57.428 128 128v426.667h-85.332v-426.667zM511.989 661.335h128v-85.335h-128v85.335zM511.989 490.668h128v-85.332h-128v85.332zM213.322 661.335h213.332v-255.999h-213.332v255.999zM213.322 234.668v85.332h426.668v-85.332h-426.668z" />
<glyph unicode="&#xe981;" glyph-name="pin" d="M614.989 369.98l168.529 168.53 60.339-60.34 60.339 60.34c33.306 33.308 33.306 87.372 0 120.68l-181.022 181.019c-33.306 33.308-87.369 33.308-120.678 0l-60.339-60.34 60.339-60.34-168.529-168.529-133.169 30.17c-11.313 0.030-22.145-4.465-30.17-12.49l-60.34-60.341c-16.684-16.683-16.654-43.686 0-60.339l120.68-120.678-90.51-90.509-30.17-90.513 90.51 30.174 90.51 90.509 120.68-120.683c16.683-16.683 43.657-16.683 60.339 0l60.339 60.343c8.026 8.021 12.523 18.854 12.493 30.17l-30.17 133.167z" />
<glyph unicode="&#xe982;" glyph-name="pin-thin" d="M210.292 146.308l90.51 30.17 90.51 90.513 150.85-150.852c16.683-16.683 43.657-16.683 60.339 0l47.851 47.851c15.868 15.868 24.977 37.892 24.977 60.339v85.321l108.19 108.19c16.687-16.683 43.657-16.683 60.339 0l90.513 90.509c33.276 33.278 33.276 87.403 0 120.68l-241.361 241.359c-33.276 33.277-87.403 33.277-120.678 0l-90.509-90.51c-16.687-16.684-16.657-43.686 0-60.34l-108.191-108.189h-85.321c-22.476 0.030-44.47-9.111-60.34-24.98l-47.849-47.849c-16.684-16.684-16.654-43.687 0-60.34l150.849-150.848-90.51-90.513-30.17-90.509zM632.67 810.047l241.361-241.359-60.343-60.34-241.357 241.359 60.339 60.34zM288.311 526.029h103c11.313-0.030 22.144 4.463 30.17 12.489l120.681 120.679 181.018-181.019-120.678-120.678c-8.026-8.026-12.523-18.859-12.489-30.17v-103.002l-17.681-17.681-301.699 301.7 17.679 17.681z" />
<glyph unicode="&#xe983;" glyph-name="public" d="M511.967 874.675c-235.264 0-426.666-191.403-426.666-426.667 0-235.262 191.402-426.668 426.666-426.668 235.261 0 426.668 191.406 426.668 426.668 0 235.264-191.406 426.667-426.668 426.667zM170.633 448.008c0 38.358 6.656 75.179 18.39 109.611l152.278-152.279v-85.33l128-128v-82.391c-168.064 21.12-298.667 164.649-298.667 338.389zM782.044 240.092c-27.858 22.446-70.098 37.248-99.41 37.248v42.67c0 47.104-38.231 85.33-85.335 85.33h-170.666v128.002c47.104 0 85.334 38.23 85.334 85.334v42.666h42.668c47.104 0 85.33 38.23 85.33 85.334v17.536c124.928-50.731 213.335-173.27 213.335-316.203 0-78.293-26.752-150.27-71.255-207.916z" />
<glyph unicode="&#xe984;" glyph-name="private" d="M853.366 448c0 47.060-38.272 85.332-85.33 85.332h-42.67v128c0 117.632-95.698 213.333-213.33 213.333-117.635 0-213.336-95.701-213.336-213.333v-128h-42.666c-47.062 0-85.334-38.272-85.334-85.332v-341.335c0-47.063 38.272-85.335 85.334-85.335h512.003c47.058 0 85.33 38.272 85.33 85.335v341.335zM384.033 661.332c0 70.57 57.43 128 128.003 128 70.569 0 128-57.43 128-128v-128h-256.003v128z" />
<glyph unicode="&#xe985;" glyph-name="user-check" d="M851.722 599.88l-176.128-175.8-52.92 52.92-57.917-57.917 110.838-110.756 233.964 233.554-57.836 57.999zM184.32 611.84c0-93.389 70.451-163.84 163.84-163.84s163.84 70.451 163.84 163.84c0 93.389-70.451 163.84-163.84 163.84s-163.84-70.451-163.84-163.84zM430.080 611.84c0-48.251-33.669-81.92-81.92-81.92s-81.92 33.669-81.92 81.92c0 48.251 33.669 81.92 81.92 81.92s81.92-33.669 81.92-81.92zM184.32 202.24c0 67.748 55.132 122.88 122.88 122.88h81.92c67.748 0 122.88-55.132 122.88-122.88v-40.96h81.92v40.96c0 112.927-91.873 204.8-204.8 204.8h-81.92c-112.927 0-204.8-91.873-204.8-204.8v-40.96h81.92v40.96z" />
<glyph unicode="&#xe986;" glyph-name="discussion" d="M682.634 362.67h21.33c35.287 0 64 28.713 64 64v383.998c0 35.286-28.713 64-64 64h-554.664c-35.286 0-64-28.714-64-64v-618.669l227.541 170.67h369.793zM284.425 448.002l-113.792-85.332v426.665h512.001v-341.334h-398.209zM874.634 618.669h-21.335v-256.045c0-23.967 0-151.132 0-151.132l-84.905 65.843h-427.094v-21.335c0-35.282 28.714-64 64-64h305.791l227.543-170.665v533.334c0 35.286-28.718 64-64 64z" />
<glyph unicode="&#xe987;" glyph-name="question" d="M682.634 874.669h-341.334c-141.184 0-256-114.816-256-256v-511.998c0-23.552 19.114-42.67 42.666-42.67h554.668c141.184 0 256 114.816 256 256v298.669c0 141.184-114.816 256-256 256zM853.299 320c0-94.121-76.544-170.665-170.665-170.665h-512.001v469.334c0 94.123 76.544 170.667 170.667 170.667h341.334c94.121 0 170.665-76.544 170.665-170.667v-298.669zM466.471 375.107c0 28.902 3.478 51.922 10.433 69.053 6.956 17.138 19.639 33.964 38.050 50.48 18.616 16.722 30.991 30.245 37.13 40.567 6.139 10.529 9.206 21.575 9.206 33.136 0 34.89-15.954 52.336-47.867 52.336-15.141 0-27.313-4.748-36.519-14.245-9.001-9.29-13.706-22.193-14.115-38.709h-88.989c0.409 39.432 12.99 70.297 37.744 92.593 24.958 22.297 58.917 33.445 101.88 33.445 43.366 0 77.020-10.632 100.956-31.897 23.931-21.058 35.901-50.89 35.901-89.497 0-17.548-3.886-34.168-11.663-49.858-7.772-15.484-21.376-32.722-40.812-51.716l-24.852-23.844c-15.549-15.073-24.448-32.722-26.701-52.956l-1.224-18.888h-78.558zM457.572 280.033c0 13.834 4.603 25.185 13.809 34.063 9.411 9.083 21.378 13.629 35.902 13.629 14.526 0 26.39-4.547 35.595-13.629 9.411-8.878 14.116-20.229 14.116-34.063 0-13.624-4.603-24.878-13.809-33.756-9.001-8.878-20.966-13.317-35.902-13.317-14.934 0-27.003 4.439-36.209 13.317-9.001 8.878-13.502 20.132-13.502 33.756z" />
<glyph unicode="&#xe988;" glyph-name="unfollow" d="M853.333 746.667h-682.667c-47.061 0-85.333-35.883-85.333-80v-522.667c0-44.117 38.272-80 85.333-80h682.667c47.061 0 85.333 35.883 85.333 80v522.667c0 44.117-38.272 80-85.333 80zM853.333 149.333l-682.667 0.469v511.531l682.667-0.469v-511.531zM785.067 874.667h-546.133c-37.649 0-68.267-35.883-68.267-80v-112h682.667v112c0 44.117-30.618 80-68.267 80zM785.067 746.667h-546.133v42.667l546.133-0.469v-42.197zM640.004 576l-128.021-128-127.987 128-42.663-42.667 127.987-128-127.987-128 42.663-42.667 127.987 128 128.021-128 42.662 42.667-127.987 128 127.987 128-42.662 42.667z" />
<glyph unicode="&#xe989;" glyph-name="comment-check" d="M734.165 609.836l-60.331 60.331-204.501-204.503-97.836 97.836-60.331-60.332 158.167-158.165 264.832 264.833zM853.333 874.667h-682.667c-47.061 0-85.333-38.272-85.333-85.333v-768l227.541 170.667h540.459c47.061 0 85.333 38.272 85.333 85.333v512c0 47.061-38.272 85.333-85.333 85.333zM853.333 277.333h-568.875l-113.792-85.333v597.333h682.667v-512z" />
<glyph unicode="&#xe98a;" glyph-name="comment-x" d="M414.164 375.168l97.836 97.835 97.835-97.835 60.331 60.331-97.835 97.836 97.835 97.835-60.331 60.331-97.835-97.835-97.836 97.835-60.331-60.331 97.836-97.835-97.836-97.836 60.331-60.331zM853.333 874.667h-682.667c-47.061 0-85.333-38.272-85.333-85.333v-768l227.541 170.667h540.459c47.061 0 85.333 38.272 85.333 85.333v512c0 47.061-38.272 85.333-85.333 85.333zM853.333 277.333h-568.875l-113.792-85.333v597.333h682.667v-512z" />
<glyph unicode="&#xe98b;" glyph-name="skip-previous" d="M682.667 661.333l-298.667-213.333 298.667-213.333v426.667zM384 448v213.333h-85.333v-426.667h85.333v213.333z" />
<glyph unicode="&#xe98c;" glyph-name="pause" d="M298.667 661.333h128v-426.667h-128v426.667zM597.333 661.333h128v-426.667h-128v426.667z" />
<glyph unicode="&#xe98d;" glyph-name="skip-next" d="M298.667 661.333v-426.667l298.667 213.333-298.667 213.333zM682.667 234.667v426.667h-85.333v-426.667h85.333z" />
<glyph unicode="&#xe98e;" glyph-name="volume-mute" d="M592.606 784.267c11.667-4.949 19.241-16.394 19.241-29.066v-238.934h-63.147v164.511l-48.882-47.245-43.885 45.407 102.4 98.966c9.114 8.806 22.607 11.312 34.273 6.362zM305.936 632.295l-90.603 101.928 47.197 41.952 546.133-614.4-47.196-41.953-149.654 168.363v-147.384c0-12.213-7.042-23.33-18.084-28.546-11.042-5.219-24.102-3.601-33.536 4.154l-221.664 182.197h-142.289c-15.744 0-30.465 6.625-41.035 17.797-10.514 11.114-16.138 25.829-16.138 40.83v216.436c0 15.002 5.623 29.716 16.138 40.83 10.57 11.17 25.291 17.796 41.035 17.796h109.696zM360.438 570.979c-3.376-1.201-6.96-1.83-10.598-1.83h-147.626v-207.398h147.626c7.315 0 14.401-2.536 20.050-7.182l178.777-146.947v151.6l-188.228 211.756zM806.257 528.64c-10.216 25.532-25.156 48.66-43.923 68.096l45.425 43.864c24.518-25.391 43.913-55.476 57.126-88.51 13.213-33.031 20.002-68.396 20.002-104.090 0-35.69-6.789-71.059-20.002-104.090-13.213-33.034-32.608-63.116-57.126-88.508l-45.425 43.865c18.767 19.432 33.707 42.561 43.923 68.096 10.213 25.535 15.483 52.937 15.483 80.637s-5.27 55.105-15.483 80.64zM662.535 491.957c7.694-6.376 13.408-13.619 17.162-21.129 3.741-7.479 5.54-15.213 5.54-22.825s-1.799-15.346-5.54-22.825c-3.755-7.509-9.469-14.756-17.162-21.129l40.284-48.626c13.947 11.554 25.399 25.597 33.359 41.513 7.974 15.947 12.206 33.321 12.206 51.067 0 17.743-4.233 35.116-12.206 51.063-7.96 15.92-19.412 29.959-33.359 41.516l-40.284-48.626z" />
<glyph unicode="&#xe98f;" glyph-name="shuffle" d="M665.6 290.133h-47.892l-297.984 318.768c-5.806 6.212-14.070 9.766-22.733 9.766h-92.191v-59.733h78.612l125.645-134.4-125.645-134.431h-78.612v-59.733h92.191c8.663 0 16.927 3.553 22.733 9.766l130.836 139.988 130.836-139.957c5.806-6.212 14.070-9.766 22.733-9.766h61.471v-89.6l153.6 119.467-153.6 119.467v-89.6zM617.67 558.138h47.899v-97.754l153.631 128.321-153.631 132.362v-97.757h-61.481c-8.663 0-16.93-3.878-22.736-10.654l-103.485-120.794 45.476-43.861 94.327 110.138z" />
</font>
</defs>
</svg>
